<mxfile host="65bd71144e">
    <diagram id="01rH4ctrxPgQUe8LOM-m" name="Page-1">
        <mxGraphModel dx="5220" dy="1471" grid="1" gridSize="10" guides="1" tooltips="1" connect="1" arrows="1" fold="1" page="1" pageScale="1" pageWidth="1100" pageHeight="850" background="#FFFFFF" math="0" shadow="0">
            <root>
                <mxCell id="0"/>
                <mxCell id="1" parent="0"/>
                <mxCell id="688" value="" style="rounded=0;whiteSpace=wrap;html=1;fillColor=default;fillStyle=solid;" parent="1" vertex="1">
                    <mxGeometry x="20" y="360" width="9730" height="492" as="geometry"/>
                </mxCell>
                <mxCell id="102" value="" style="shape=mxgraph.cisco.computers_and_peripherals.workstation;sketch=0;html=1;pointerEvents=1;dashed=0;fillColor=#036897;strokeColor=#ffffff;strokeWidth=2;verticalLabelPosition=bottom;verticalAlign=top;align=center;outlineConnect=0;" parent="1" vertex="1">
                    <mxGeometry x="40" y="740" width="83" height="62" as="geometry"/>
                </mxCell>
                <mxCell id="196" style="edgeStyle=none;html=1;" parent="1" source="103" target="105" edge="1">
                    <mxGeometry relative="1" as="geometry"/>
                </mxCell>
                <mxCell id="495" value="&lt;span style=&quot;color: rgb(0, 0, 0);&quot;&gt;35 Mbps&lt;/span&gt;" style="edgeLabel;html=1;align=center;verticalAlign=middle;resizable=0;points=[];" parent="196" vertex="1" connectable="0">
                    <mxGeometry x="-0.0038" relative="1" as="geometry">
                        <mxPoint as="offset"/>
                    </mxGeometry>
                </mxCell>
                <mxCell id="197" style="edgeStyle=none;html=1;" parent="1" source="103" target="102" edge="1">
                    <mxGeometry relative="1" as="geometry"/>
                </mxCell>
                <mxCell id="494" value="&lt;span style=&quot;color: rgb(0, 0, 0);&quot;&gt;35 Mbps&lt;/span&gt;" style="edgeLabel;html=1;align=center;verticalAlign=middle;resizable=0;points=[];" parent="197" vertex="1" connectable="0">
                    <mxGeometry x="-0.0142" relative="1" as="geometry">
                        <mxPoint as="offset"/>
                    </mxGeometry>
                </mxCell>
                <mxCell id="198" style="edgeStyle=none;html=1;" parent="1" source="103" target="106" edge="1">
                    <mxGeometry relative="1" as="geometry"/>
                </mxCell>
                <mxCell id="496" value="&lt;span style=&quot;color: rgb(0, 0, 0);&quot;&gt;35 Mbps&lt;/span&gt;" style="edgeLabel;html=1;align=center;verticalAlign=middle;resizable=0;points=[];" parent="198" vertex="1" connectable="0">
                    <mxGeometry x="0.0046" relative="1" as="geometry">
                        <mxPoint as="offset"/>
                    </mxGeometry>
                </mxCell>
                <mxCell id="103" value="" style="shape=mxgraph.cisco.switches.workgroup_switch;sketch=0;html=1;pointerEvents=1;dashed=0;fillColor=#036897;strokeColor=#ffffff;strokeWidth=2;verticalLabelPosition=bottom;verticalAlign=top;align=center;outlineConnect=0;" parent="1" vertex="1">
                    <mxGeometry x="151" y="650" width="101" height="50" as="geometry"/>
                </mxCell>
                <mxCell id="105" value="" style="shape=mxgraph.cisco.computers_and_peripherals.workstation;sketch=0;html=1;pointerEvents=1;dashed=0;fillColor=#036897;strokeColor=#ffffff;strokeWidth=2;verticalLabelPosition=bottom;verticalAlign=top;align=center;outlineConnect=0;" parent="1" vertex="1">
                    <mxGeometry x="160" y="740" width="83" height="62" as="geometry"/>
                </mxCell>
                <mxCell id="106" value="" style="shape=mxgraph.cisco.computers_and_peripherals.workstation;sketch=0;html=1;pointerEvents=1;dashed=0;fillColor=#036897;strokeColor=#ffffff;strokeWidth=2;verticalLabelPosition=bottom;verticalAlign=top;align=center;outlineConnect=0;" parent="1" vertex="1">
                    <mxGeometry x="280" y="740" width="83" height="62" as="geometry"/>
                </mxCell>
                <mxCell id="107" value="" style="shape=mxgraph.cisco.computers_and_peripherals.workstation;sketch=0;html=1;pointerEvents=1;dashed=0;fillColor=#036897;strokeColor=#ffffff;strokeWidth=2;verticalLabelPosition=bottom;verticalAlign=top;align=center;outlineConnect=0;" parent="1" vertex="1">
                    <mxGeometry x="400" y="740" width="83" height="62" as="geometry"/>
                </mxCell>
                <mxCell id="108" value="" style="shape=mxgraph.cisco.computers_and_peripherals.workstation;sketch=0;html=1;pointerEvents=1;dashed=0;fillColor=#036897;strokeColor=#ffffff;strokeWidth=2;verticalLabelPosition=bottom;verticalAlign=top;align=center;outlineConnect=0;" parent="1" vertex="1">
                    <mxGeometry x="520" y="740" width="83" height="62" as="geometry"/>
                </mxCell>
                <mxCell id="109" value="" style="shape=mxgraph.cisco.computers_and_peripherals.workstation;sketch=0;html=1;pointerEvents=1;dashed=0;fillColor=#036897;strokeColor=#ffffff;strokeWidth=2;verticalLabelPosition=bottom;verticalAlign=top;align=center;outlineConnect=0;" parent="1" vertex="1">
                    <mxGeometry x="640" y="740" width="83" height="62" as="geometry"/>
                </mxCell>
                <mxCell id="110" value="" style="shape=mxgraph.cisco.computers_and_peripherals.workstation;sketch=0;html=1;pointerEvents=1;dashed=0;fillColor=#036897;strokeColor=#ffffff;strokeWidth=2;verticalLabelPosition=bottom;verticalAlign=top;align=center;outlineConnect=0;" parent="1" vertex="1">
                    <mxGeometry x="760" y="740" width="83" height="62" as="geometry"/>
                </mxCell>
                <mxCell id="111" value="" style="shape=mxgraph.cisco.computers_and_peripherals.workstation;sketch=0;html=1;pointerEvents=1;dashed=0;fillColor=#036897;strokeColor=#ffffff;strokeWidth=2;verticalLabelPosition=bottom;verticalAlign=top;align=center;outlineConnect=0;" parent="1" vertex="1">
                    <mxGeometry x="1000" y="740" width="83" height="62" as="geometry"/>
                </mxCell>
                <mxCell id="112" value="" style="shape=mxgraph.cisco.computers_and_peripherals.workstation;sketch=0;html=1;pointerEvents=1;dashed=0;fillColor=#036897;strokeColor=#ffffff;strokeWidth=2;verticalLabelPosition=bottom;verticalAlign=top;align=center;outlineConnect=0;" parent="1" vertex="1">
                    <mxGeometry x="880" y="740" width="83" height="62" as="geometry"/>
                </mxCell>
                <mxCell id="113" value="" style="shape=mxgraph.cisco.computers_and_peripherals.workstation;sketch=0;html=1;pointerEvents=1;dashed=0;fillColor=#036897;strokeColor=#ffffff;strokeWidth=2;verticalLabelPosition=bottom;verticalAlign=top;align=center;outlineConnect=0;" parent="1" vertex="1">
                    <mxGeometry x="1120" y="740" width="83" height="62" as="geometry"/>
                </mxCell>
                <mxCell id="199" style="edgeStyle=none;html=1;" parent="1" source="114" target="108" edge="1">
                    <mxGeometry relative="1" as="geometry"/>
                </mxCell>
                <mxCell id="499" value="&lt;span style=&quot;color: rgb(0, 0, 0);&quot;&gt;35 Mbps&lt;/span&gt;" style="edgeLabel;html=1;align=center;verticalAlign=middle;resizable=0;points=[];" parent="199" vertex="1" connectable="0">
                    <mxGeometry x="-0.0038" relative="1" as="geometry">
                        <mxPoint as="offset"/>
                    </mxGeometry>
                </mxCell>
                <mxCell id="200" style="edgeStyle=none;html=1;" parent="1" source="114" target="107" edge="1">
                    <mxGeometry relative="1" as="geometry"/>
                </mxCell>
                <mxCell id="498" value="&lt;span style=&quot;color: rgb(0, 0, 0);&quot;&gt;35 Mbps&lt;/span&gt;" style="edgeLabel;html=1;align=center;verticalAlign=middle;resizable=0;points=[];" parent="200" vertex="1" connectable="0">
                    <mxGeometry x="0.0665" y="-1" relative="1" as="geometry">
                        <mxPoint as="offset"/>
                    </mxGeometry>
                </mxCell>
                <mxCell id="201" style="edgeStyle=none;html=1;" parent="1" source="114" target="109" edge="1">
                    <mxGeometry relative="1" as="geometry"/>
                </mxCell>
                <mxCell id="500" value="&lt;span style=&quot;color: rgb(0, 0, 0);&quot;&gt;35 Mbps&lt;/span&gt;" style="edgeLabel;html=1;align=center;verticalAlign=middle;resizable=0;points=[];" parent="201" vertex="1" connectable="0">
                    <mxGeometry x="-0.0048" y="-1" relative="1" as="geometry">
                        <mxPoint as="offset"/>
                    </mxGeometry>
                </mxCell>
                <mxCell id="114" value="" style="shape=mxgraph.cisco.switches.workgroup_switch;sketch=0;html=1;pointerEvents=1;dashed=0;fillColor=#036897;strokeColor=#ffffff;strokeWidth=2;verticalLabelPosition=bottom;verticalAlign=top;align=center;outlineConnect=0;" parent="1" vertex="1">
                    <mxGeometry x="511" y="650" width="101" height="50" as="geometry"/>
                </mxCell>
                <mxCell id="115" value="" style="shape=mxgraph.cisco.computers_and_peripherals.workstation;sketch=0;html=1;pointerEvents=1;dashed=0;fillColor=#036897;strokeColor=#ffffff;strokeWidth=2;verticalLabelPosition=bottom;verticalAlign=top;align=center;outlineConnect=0;" parent="1" vertex="1">
                    <mxGeometry x="1240" y="740" width="83" height="62" as="geometry"/>
                </mxCell>
                <mxCell id="116" value="" style="shape=mxgraph.cisco.computers_and_peripherals.workstation;sketch=0;html=1;pointerEvents=1;dashed=0;fillColor=#036897;strokeColor=#ffffff;strokeWidth=2;verticalLabelPosition=bottom;verticalAlign=top;align=center;outlineConnect=0;" parent="1" vertex="1">
                    <mxGeometry x="1360" y="740" width="83" height="62" as="geometry"/>
                </mxCell>
                <mxCell id="117" value="" style="shape=mxgraph.cisco.computers_and_peripherals.workstation;sketch=0;html=1;pointerEvents=1;dashed=0;fillColor=#036897;strokeColor=#ffffff;strokeWidth=2;verticalLabelPosition=bottom;verticalAlign=top;align=center;outlineConnect=0;" parent="1" vertex="1">
                    <mxGeometry x="1480" y="740" width="83" height="62" as="geometry"/>
                </mxCell>
                <mxCell id="118" value="" style="shape=mxgraph.cisco.computers_and_peripherals.workstation;sketch=0;html=1;pointerEvents=1;dashed=0;fillColor=#036897;strokeColor=#ffffff;strokeWidth=2;verticalLabelPosition=bottom;verticalAlign=top;align=center;outlineConnect=0;" parent="1" vertex="1">
                    <mxGeometry x="1600" y="740" width="83" height="62" as="geometry"/>
                </mxCell>
                <mxCell id="119" value="" style="shape=mxgraph.cisco.computers_and_peripherals.workstation;sketch=0;html=1;pointerEvents=1;dashed=0;fillColor=#036897;strokeColor=#ffffff;strokeWidth=2;verticalLabelPosition=bottom;verticalAlign=top;align=center;outlineConnect=0;" parent="1" vertex="1">
                    <mxGeometry x="1720" y="740" width="83" height="62" as="geometry"/>
                </mxCell>
                <mxCell id="120" value="" style="shape=mxgraph.cisco.computers_and_peripherals.workstation;sketch=0;html=1;pointerEvents=1;dashed=0;fillColor=#036897;strokeColor=#ffffff;strokeWidth=2;verticalLabelPosition=bottom;verticalAlign=top;align=center;outlineConnect=0;" parent="1" vertex="1">
                    <mxGeometry x="1840" y="740" width="83" height="62" as="geometry"/>
                </mxCell>
                <mxCell id="121" value="" style="shape=mxgraph.cisco.computers_and_peripherals.workstation;sketch=0;html=1;pointerEvents=1;dashed=0;fillColor=#036897;strokeColor=#ffffff;strokeWidth=2;verticalLabelPosition=bottom;verticalAlign=top;align=center;outlineConnect=0;" parent="1" vertex="1">
                    <mxGeometry x="1960" y="740" width="83" height="62" as="geometry"/>
                </mxCell>
                <mxCell id="122" value="" style="shape=mxgraph.cisco.computers_and_peripherals.workstation;sketch=0;html=1;pointerEvents=1;dashed=0;fillColor=#036897;strokeColor=#ffffff;strokeWidth=2;verticalLabelPosition=bottom;verticalAlign=top;align=center;outlineConnect=0;" parent="1" vertex="1">
                    <mxGeometry x="2080" y="740" width="83" height="62" as="geometry"/>
                </mxCell>
                <mxCell id="123" value="" style="shape=mxgraph.cisco.computers_and_peripherals.workstation;sketch=0;html=1;pointerEvents=1;dashed=0;fillColor=#036897;strokeColor=#ffffff;strokeWidth=2;verticalLabelPosition=bottom;verticalAlign=top;align=center;outlineConnect=0;" parent="1" vertex="1">
                    <mxGeometry x="2200" y="740" width="83" height="62" as="geometry"/>
                </mxCell>
                <mxCell id="124" value="" style="shape=mxgraph.cisco.computers_and_peripherals.workstation;sketch=0;html=1;pointerEvents=1;dashed=0;fillColor=#036897;strokeColor=#ffffff;strokeWidth=2;verticalLabelPosition=bottom;verticalAlign=top;align=center;outlineConnect=0;" parent="1" vertex="1">
                    <mxGeometry x="2320" y="740" width="83" height="62" as="geometry"/>
                </mxCell>
                <mxCell id="125" value="" style="shape=mxgraph.cisco.computers_and_peripherals.workstation;sketch=0;html=1;pointerEvents=1;dashed=0;fillColor=#036897;strokeColor=#ffffff;strokeWidth=2;verticalLabelPosition=bottom;verticalAlign=top;align=center;outlineConnect=0;" parent="1" vertex="1">
                    <mxGeometry x="2440" y="740" width="83" height="62" as="geometry"/>
                </mxCell>
                <mxCell id="126" value="" style="shape=mxgraph.cisco.computers_and_peripherals.workstation;sketch=0;html=1;pointerEvents=1;dashed=0;fillColor=#036897;strokeColor=#ffffff;strokeWidth=2;verticalLabelPosition=bottom;verticalAlign=top;align=center;outlineConnect=0;" parent="1" vertex="1">
                    <mxGeometry x="2560" y="740" width="83" height="62" as="geometry"/>
                </mxCell>
                <mxCell id="127" value="" style="shape=mxgraph.cisco.computers_and_peripherals.workstation;sketch=0;html=1;pointerEvents=1;dashed=0;fillColor=#036897;strokeColor=#ffffff;strokeWidth=2;verticalLabelPosition=bottom;verticalAlign=top;align=center;outlineConnect=0;" parent="1" vertex="1">
                    <mxGeometry x="2680" y="740" width="83" height="62" as="geometry"/>
                </mxCell>
                <mxCell id="128" value="" style="shape=mxgraph.cisco.computers_and_peripherals.workstation;sketch=0;html=1;pointerEvents=1;dashed=0;fillColor=#036897;strokeColor=#ffffff;strokeWidth=2;verticalLabelPosition=bottom;verticalAlign=top;align=center;outlineConnect=0;" parent="1" vertex="1">
                    <mxGeometry x="2800" y="740" width="83" height="62" as="geometry"/>
                </mxCell>
                <mxCell id="129" value="" style="shape=mxgraph.cisco.computers_and_peripherals.workstation;sketch=0;html=1;pointerEvents=1;dashed=0;fillColor=#036897;strokeColor=#ffffff;strokeWidth=2;verticalLabelPosition=bottom;verticalAlign=top;align=center;outlineConnect=0;" parent="1" vertex="1">
                    <mxGeometry x="2920" y="740" width="83" height="62" as="geometry"/>
                </mxCell>
                <mxCell id="130" value="" style="shape=mxgraph.cisco.computers_and_peripherals.workstation;sketch=0;html=1;pointerEvents=1;dashed=0;fillColor=#036897;strokeColor=#ffffff;strokeWidth=2;verticalLabelPosition=bottom;verticalAlign=top;align=center;outlineConnect=0;" parent="1" vertex="1">
                    <mxGeometry x="3040" y="740" width="83" height="62" as="geometry"/>
                </mxCell>
                <mxCell id="131" value="" style="shape=mxgraph.cisco.computers_and_peripherals.workstation;sketch=0;html=1;pointerEvents=1;dashed=0;fillColor=#036897;strokeColor=#ffffff;strokeWidth=2;verticalLabelPosition=bottom;verticalAlign=top;align=center;outlineConnect=0;" parent="1" vertex="1">
                    <mxGeometry x="3160" y="740" width="83" height="62" as="geometry"/>
                </mxCell>
                <mxCell id="132" value="" style="shape=mxgraph.cisco.computers_and_peripherals.workstation;sketch=0;html=1;pointerEvents=1;dashed=0;fillColor=#036897;strokeColor=#ffffff;strokeWidth=2;verticalLabelPosition=bottom;verticalAlign=top;align=center;outlineConnect=0;" parent="1" vertex="1">
                    <mxGeometry x="3280" y="740" width="83" height="62" as="geometry"/>
                </mxCell>
                <mxCell id="133" value="" style="shape=mxgraph.cisco.computers_and_peripherals.workstation;sketch=0;html=1;pointerEvents=1;dashed=0;fillColor=#036897;strokeColor=#ffffff;strokeWidth=2;verticalLabelPosition=bottom;verticalAlign=top;align=center;outlineConnect=0;" parent="1" vertex="1">
                    <mxGeometry x="3400" y="740" width="83" height="62" as="geometry"/>
                </mxCell>
                <mxCell id="134" value="" style="shape=mxgraph.cisco.computers_and_peripherals.workstation;sketch=0;html=1;pointerEvents=1;dashed=0;fillColor=#036897;strokeColor=#ffffff;strokeWidth=2;verticalLabelPosition=bottom;verticalAlign=top;align=center;outlineConnect=0;" parent="1" vertex="1">
                    <mxGeometry x="3520" y="740" width="83" height="62" as="geometry"/>
                </mxCell>
                <mxCell id="135" value="" style="shape=mxgraph.cisco.computers_and_peripherals.workstation;sketch=0;html=1;pointerEvents=1;dashed=0;fillColor=#036897;strokeColor=#ffffff;strokeWidth=2;verticalLabelPosition=bottom;verticalAlign=top;align=center;outlineConnect=0;" parent="1" vertex="1">
                    <mxGeometry x="3640" y="740" width="83" height="62" as="geometry"/>
                </mxCell>
                <mxCell id="136" value="" style="shape=mxgraph.cisco.computers_and_peripherals.workstation;sketch=0;html=1;pointerEvents=1;dashed=0;fillColor=#036897;strokeColor=#ffffff;strokeWidth=2;verticalLabelPosition=bottom;verticalAlign=top;align=center;outlineConnect=0;" parent="1" vertex="1">
                    <mxGeometry x="3760" y="740" width="83" height="62" as="geometry"/>
                </mxCell>
                <mxCell id="137" value="" style="shape=mxgraph.cisco.computers_and_peripherals.workstation;sketch=0;html=1;pointerEvents=1;dashed=0;fillColor=#036897;strokeColor=#ffffff;strokeWidth=2;verticalLabelPosition=bottom;verticalAlign=top;align=center;outlineConnect=0;" parent="1" vertex="1">
                    <mxGeometry x="3880" y="740" width="83" height="62" as="geometry"/>
                </mxCell>
                <mxCell id="138" value="" style="shape=mxgraph.cisco.computers_and_peripherals.workstation;sketch=0;html=1;pointerEvents=1;dashed=0;fillColor=#036897;strokeColor=#ffffff;strokeWidth=2;verticalLabelPosition=bottom;verticalAlign=top;align=center;outlineConnect=0;" parent="1" vertex="1">
                    <mxGeometry x="4000" y="740" width="83" height="62" as="geometry"/>
                </mxCell>
                <mxCell id="139" value="" style="shape=mxgraph.cisco.computers_and_peripherals.workstation;sketch=0;html=1;pointerEvents=1;dashed=0;fillColor=#036897;strokeColor=#ffffff;strokeWidth=2;verticalLabelPosition=bottom;verticalAlign=top;align=center;outlineConnect=0;" parent="1" vertex="1">
                    <mxGeometry x="4120" y="740" width="83" height="62" as="geometry"/>
                </mxCell>
                <mxCell id="140" value="" style="shape=mxgraph.cisco.computers_and_peripherals.workstation;sketch=0;html=1;pointerEvents=1;dashed=0;fillColor=#036897;strokeColor=#ffffff;strokeWidth=2;verticalLabelPosition=bottom;verticalAlign=top;align=center;outlineConnect=0;" parent="1" vertex="1">
                    <mxGeometry x="4240" y="740" width="83" height="62" as="geometry"/>
                </mxCell>
                <mxCell id="141" value="" style="shape=mxgraph.cisco.computers_and_peripherals.workstation;sketch=0;html=1;pointerEvents=1;dashed=0;fillColor=#036897;strokeColor=#ffffff;strokeWidth=2;verticalLabelPosition=bottom;verticalAlign=top;align=center;outlineConnect=0;" parent="1" vertex="1">
                    <mxGeometry x="4360" y="740" width="83" height="62" as="geometry"/>
                </mxCell>
                <mxCell id="142" value="" style="shape=mxgraph.cisco.computers_and_peripherals.workstation;sketch=0;html=1;pointerEvents=1;dashed=0;fillColor=#036897;strokeColor=#ffffff;strokeWidth=2;verticalLabelPosition=bottom;verticalAlign=top;align=center;outlineConnect=0;" parent="1" vertex="1">
                    <mxGeometry x="4480" y="740" width="83" height="62" as="geometry"/>
                </mxCell>
                <mxCell id="143" value="" style="shape=mxgraph.cisco.computers_and_peripherals.workstation;sketch=0;html=1;pointerEvents=1;dashed=0;fillColor=#036897;strokeColor=#ffffff;strokeWidth=2;verticalLabelPosition=bottom;verticalAlign=top;align=center;outlineConnect=0;" parent="1" vertex="1">
                    <mxGeometry x="4600" y="740" width="83" height="62" as="geometry"/>
                </mxCell>
                <mxCell id="144" value="" style="shape=mxgraph.cisco.computers_and_peripherals.workstation;sketch=0;html=1;pointerEvents=1;dashed=0;fillColor=#036897;strokeColor=#ffffff;strokeWidth=2;verticalLabelPosition=bottom;verticalAlign=top;align=center;outlineConnect=0;" parent="1" vertex="1">
                    <mxGeometry x="4720" y="740" width="83" height="62" as="geometry"/>
                </mxCell>
                <mxCell id="145" value="" style="shape=mxgraph.cisco.computers_and_peripherals.workstation;sketch=0;html=1;pointerEvents=1;dashed=0;fillColor=#036897;strokeColor=#ffffff;strokeWidth=2;verticalLabelPosition=bottom;verticalAlign=top;align=center;outlineConnect=0;" parent="1" vertex="1">
                    <mxGeometry x="4840" y="740" width="83" height="62" as="geometry"/>
                </mxCell>
                <mxCell id="146" value="" style="shape=mxgraph.cisco.computers_and_peripherals.workstation;sketch=0;html=1;pointerEvents=1;dashed=0;fillColor=#036897;strokeColor=#ffffff;strokeWidth=2;verticalLabelPosition=bottom;verticalAlign=top;align=center;outlineConnect=0;" parent="1" vertex="1">
                    <mxGeometry x="4960" y="740" width="83" height="62" as="geometry"/>
                </mxCell>
                <mxCell id="147" value="" style="shape=mxgraph.cisco.computers_and_peripherals.workstation;sketch=0;html=1;pointerEvents=1;dashed=0;fillColor=#036897;strokeColor=#ffffff;strokeWidth=2;verticalLabelPosition=bottom;verticalAlign=top;align=center;outlineConnect=0;" parent="1" vertex="1">
                    <mxGeometry x="5080" y="740" width="83" height="62" as="geometry"/>
                </mxCell>
                <mxCell id="148" value="" style="shape=mxgraph.cisco.computers_and_peripherals.workstation;sketch=0;html=1;pointerEvents=1;dashed=0;fillColor=#036897;strokeColor=#ffffff;strokeWidth=2;verticalLabelPosition=bottom;verticalAlign=top;align=center;outlineConnect=0;" parent="1" vertex="1">
                    <mxGeometry x="5200" y="740" width="83" height="62" as="geometry"/>
                </mxCell>
                <mxCell id="149" value="" style="shape=mxgraph.cisco.computers_and_peripherals.workstation;sketch=0;html=1;pointerEvents=1;dashed=0;fillColor=#036897;strokeColor=#ffffff;strokeWidth=2;verticalLabelPosition=bottom;verticalAlign=top;align=center;outlineConnect=0;" parent="1" vertex="1">
                    <mxGeometry x="5320" y="740" width="83" height="62" as="geometry"/>
                </mxCell>
                <mxCell id="150" value="" style="shape=mxgraph.cisco.computers_and_peripherals.workstation;sketch=0;html=1;pointerEvents=1;dashed=0;fillColor=#036897;strokeColor=#ffffff;strokeWidth=2;verticalLabelPosition=bottom;verticalAlign=top;align=center;outlineConnect=0;" parent="1" vertex="1">
                    <mxGeometry x="5440" y="740" width="83" height="62" as="geometry"/>
                </mxCell>
                <mxCell id="151" value="" style="shape=mxgraph.cisco.computers_and_peripherals.workstation;sketch=0;html=1;pointerEvents=1;dashed=0;fillColor=#036897;strokeColor=#ffffff;strokeWidth=2;verticalLabelPosition=bottom;verticalAlign=top;align=center;outlineConnect=0;" parent="1" vertex="1">
                    <mxGeometry x="5560" y="740" width="83" height="62" as="geometry"/>
                </mxCell>
                <mxCell id="152" value="" style="shape=mxgraph.cisco.computers_and_peripherals.workstation;sketch=0;html=1;pointerEvents=1;dashed=0;fillColor=#036897;strokeColor=#ffffff;strokeWidth=2;verticalLabelPosition=bottom;verticalAlign=top;align=center;outlineConnect=0;" parent="1" vertex="1">
                    <mxGeometry x="5680" y="740" width="83" height="62" as="geometry"/>
                </mxCell>
                <mxCell id="153" value="" style="shape=mxgraph.cisco.computers_and_peripherals.workstation;sketch=0;html=1;pointerEvents=1;dashed=0;fillColor=#036897;strokeColor=#ffffff;strokeWidth=2;verticalLabelPosition=bottom;verticalAlign=top;align=center;outlineConnect=0;" parent="1" vertex="1">
                    <mxGeometry x="5800" y="740" width="83" height="62" as="geometry"/>
                </mxCell>
                <mxCell id="154" value="" style="shape=mxgraph.cisco.computers_and_peripherals.workstation;sketch=0;html=1;pointerEvents=1;dashed=0;fillColor=#036897;strokeColor=#ffffff;strokeWidth=2;verticalLabelPosition=bottom;verticalAlign=top;align=center;outlineConnect=0;" parent="1" vertex="1">
                    <mxGeometry x="5920" y="740" width="83" height="62" as="geometry"/>
                </mxCell>
                <mxCell id="155" value="" style="shape=mxgraph.cisco.computers_and_peripherals.workstation;sketch=0;html=1;pointerEvents=1;dashed=0;fillColor=#036897;strokeColor=#ffffff;strokeWidth=2;verticalLabelPosition=bottom;verticalAlign=top;align=center;outlineConnect=0;" parent="1" vertex="1">
                    <mxGeometry x="6040" y="740" width="83" height="62" as="geometry"/>
                </mxCell>
                <mxCell id="156" value="" style="shape=mxgraph.cisco.computers_and_peripherals.workstation;sketch=0;html=1;pointerEvents=1;dashed=0;fillColor=#036897;strokeColor=#ffffff;strokeWidth=2;verticalLabelPosition=bottom;verticalAlign=top;align=center;outlineConnect=0;" parent="1" vertex="1">
                    <mxGeometry x="6160" y="740" width="83" height="62" as="geometry"/>
                </mxCell>
                <mxCell id="157" value="" style="shape=mxgraph.cisco.computers_and_peripherals.workstation;sketch=0;html=1;pointerEvents=1;dashed=0;fillColor=#036897;strokeColor=#ffffff;strokeWidth=2;verticalLabelPosition=bottom;verticalAlign=top;align=center;outlineConnect=0;" parent="1" vertex="1">
                    <mxGeometry x="6280" y="740" width="83" height="62" as="geometry"/>
                </mxCell>
                <mxCell id="158" value="" style="shape=mxgraph.cisco.computers_and_peripherals.workstation;sketch=0;html=1;pointerEvents=1;dashed=0;fillColor=#036897;strokeColor=#ffffff;strokeWidth=2;verticalLabelPosition=bottom;verticalAlign=top;align=center;outlineConnect=0;" parent="1" vertex="1">
                    <mxGeometry x="6400" y="740" width="83" height="62" as="geometry"/>
                </mxCell>
                <mxCell id="159" value="" style="shape=mxgraph.cisco.computers_and_peripherals.workstation;sketch=0;html=1;pointerEvents=1;dashed=0;fillColor=#036897;strokeColor=#ffffff;strokeWidth=2;verticalLabelPosition=bottom;verticalAlign=top;align=center;outlineConnect=0;" parent="1" vertex="1">
                    <mxGeometry x="6520" y="740" width="83" height="62" as="geometry"/>
                </mxCell>
                <mxCell id="160" value="" style="shape=mxgraph.cisco.computers_and_peripherals.workstation;sketch=0;html=1;pointerEvents=1;dashed=0;fillColor=#036897;strokeColor=#ffffff;strokeWidth=2;verticalLabelPosition=bottom;verticalAlign=top;align=center;outlineConnect=0;" parent="1" vertex="1">
                    <mxGeometry x="6640" y="740" width="83" height="62" as="geometry"/>
                </mxCell>
                <mxCell id="161" value="" style="shape=mxgraph.cisco.computers_and_peripherals.workstation;sketch=0;html=1;pointerEvents=1;dashed=0;fillColor=#036897;strokeColor=#ffffff;strokeWidth=2;verticalLabelPosition=bottom;verticalAlign=top;align=center;outlineConnect=0;" parent="1" vertex="1">
                    <mxGeometry x="6760" y="740" width="83" height="62" as="geometry"/>
                </mxCell>
                <mxCell id="162" value="" style="shape=mxgraph.cisco.computers_and_peripherals.workstation;sketch=0;html=1;pointerEvents=1;dashed=0;fillColor=#036897;strokeColor=#ffffff;strokeWidth=2;verticalLabelPosition=bottom;verticalAlign=top;align=center;outlineConnect=0;" parent="1" vertex="1">
                    <mxGeometry x="6880" y="740" width="83" height="62" as="geometry"/>
                </mxCell>
                <mxCell id="163" value="" style="shape=mxgraph.cisco.computers_and_peripherals.workstation;sketch=0;html=1;pointerEvents=1;dashed=0;fillColor=#036897;strokeColor=#ffffff;strokeWidth=2;verticalLabelPosition=bottom;verticalAlign=top;align=center;outlineConnect=0;" parent="1" vertex="1">
                    <mxGeometry x="7000" y="740" width="83" height="62" as="geometry"/>
                </mxCell>
                <mxCell id="164" value="" style="shape=mxgraph.cisco.computers_and_peripherals.workstation;sketch=0;html=1;pointerEvents=1;dashed=0;fillColor=#036897;strokeColor=#ffffff;strokeWidth=2;verticalLabelPosition=bottom;verticalAlign=top;align=center;outlineConnect=0;" parent="1" vertex="1">
                    <mxGeometry x="7120" y="740" width="83" height="62" as="geometry"/>
                </mxCell>
                <mxCell id="165" value="" style="shape=mxgraph.cisco.computers_and_peripherals.workstation;sketch=0;html=1;pointerEvents=1;dashed=0;fillColor=#036897;strokeColor=#ffffff;strokeWidth=2;verticalLabelPosition=bottom;verticalAlign=top;align=center;outlineConnect=0;" parent="1" vertex="1">
                    <mxGeometry x="7240" y="740" width="83" height="62" as="geometry"/>
                </mxCell>
                <mxCell id="166" value="" style="shape=mxgraph.cisco.computers_and_peripherals.workstation;sketch=0;html=1;pointerEvents=1;dashed=0;fillColor=#036897;strokeColor=#ffffff;strokeWidth=2;verticalLabelPosition=bottom;verticalAlign=top;align=center;outlineConnect=0;" parent="1" vertex="1">
                    <mxGeometry x="7360" y="740" width="83" height="62" as="geometry"/>
                </mxCell>
                <mxCell id="167" value="" style="shape=mxgraph.cisco.computers_and_peripherals.workstation;sketch=0;html=1;pointerEvents=1;dashed=0;fillColor=#036897;strokeColor=#ffffff;strokeWidth=2;verticalLabelPosition=bottom;verticalAlign=top;align=center;outlineConnect=0;" parent="1" vertex="1">
                    <mxGeometry x="7480" y="740" width="83" height="62" as="geometry"/>
                </mxCell>
                <mxCell id="168" value="" style="shape=mxgraph.cisco.computers_and_peripherals.workstation;sketch=0;html=1;pointerEvents=1;dashed=0;fillColor=#036897;strokeColor=#ffffff;strokeWidth=2;verticalLabelPosition=bottom;verticalAlign=top;align=center;outlineConnect=0;" parent="1" vertex="1">
                    <mxGeometry x="7600" y="740" width="83" height="62" as="geometry"/>
                </mxCell>
                <mxCell id="169" value="" style="shape=mxgraph.cisco.computers_and_peripherals.workstation;sketch=0;html=1;pointerEvents=1;dashed=0;fillColor=#036897;strokeColor=#ffffff;strokeWidth=2;verticalLabelPosition=bottom;verticalAlign=top;align=center;outlineConnect=0;" parent="1" vertex="1">
                    <mxGeometry x="7720" y="740" width="83" height="62" as="geometry"/>
                </mxCell>
                <mxCell id="170" value="" style="shape=mxgraph.cisco.computers_and_peripherals.workstation;sketch=0;html=1;pointerEvents=1;dashed=0;fillColor=#036897;strokeColor=#ffffff;strokeWidth=2;verticalLabelPosition=bottom;verticalAlign=top;align=center;outlineConnect=0;" parent="1" vertex="1">
                    <mxGeometry x="7840" y="740" width="83" height="62" as="geometry"/>
                </mxCell>
                <mxCell id="171" value="" style="shape=mxgraph.cisco.computers_and_peripherals.workstation;sketch=0;html=1;pointerEvents=1;dashed=0;fillColor=#036897;strokeColor=#ffffff;strokeWidth=2;verticalLabelPosition=bottom;verticalAlign=top;align=center;outlineConnect=0;" parent="1" vertex="1">
                    <mxGeometry x="7960" y="740" width="83" height="62" as="geometry"/>
                </mxCell>
                <mxCell id="172" value="" style="shape=mxgraph.cisco.computers_and_peripherals.workstation;sketch=0;html=1;pointerEvents=1;dashed=0;fillColor=#036897;strokeColor=#ffffff;strokeWidth=2;verticalLabelPosition=bottom;verticalAlign=top;align=center;outlineConnect=0;" parent="1" vertex="1">
                    <mxGeometry x="8080" y="740" width="83" height="62" as="geometry"/>
                </mxCell>
                <mxCell id="173" value="" style="shape=mxgraph.cisco.computers_and_peripherals.workstation;sketch=0;html=1;pointerEvents=1;dashed=0;fillColor=#036897;strokeColor=#ffffff;strokeWidth=2;verticalLabelPosition=bottom;verticalAlign=top;align=center;outlineConnect=0;" parent="1" vertex="1">
                    <mxGeometry x="8200" y="740" width="83" height="62" as="geometry"/>
                </mxCell>
                <mxCell id="174" value="" style="shape=mxgraph.cisco.computers_and_peripherals.workstation;sketch=0;html=1;pointerEvents=1;dashed=0;fillColor=#036897;strokeColor=#ffffff;strokeWidth=2;verticalLabelPosition=bottom;verticalAlign=top;align=center;outlineConnect=0;" parent="1" vertex="1">
                    <mxGeometry x="8320" y="740" width="83" height="62" as="geometry"/>
                </mxCell>
                <mxCell id="175" value="" style="shape=mxgraph.cisco.computers_and_peripherals.workstation;sketch=0;html=1;pointerEvents=1;dashed=0;fillColor=#036897;strokeColor=#ffffff;strokeWidth=2;verticalLabelPosition=bottom;verticalAlign=top;align=center;outlineConnect=0;" parent="1" vertex="1">
                    <mxGeometry x="8440" y="740" width="83" height="62" as="geometry"/>
                </mxCell>
                <mxCell id="176" value="" style="shape=mxgraph.cisco.computers_and_peripherals.workstation;sketch=0;html=1;pointerEvents=1;dashed=0;fillColor=#036897;strokeColor=#ffffff;strokeWidth=2;verticalLabelPosition=bottom;verticalAlign=top;align=center;outlineConnect=0;" parent="1" vertex="1">
                    <mxGeometry x="8560" y="740" width="83" height="62" as="geometry"/>
                </mxCell>
                <mxCell id="177" value="" style="shape=mxgraph.cisco.computers_and_peripherals.workstation;sketch=0;html=1;pointerEvents=1;dashed=0;fillColor=#036897;strokeColor=#ffffff;strokeWidth=2;verticalLabelPosition=bottom;verticalAlign=top;align=center;outlineConnect=0;" parent="1" vertex="1">
                    <mxGeometry x="8680" y="740" width="83" height="62" as="geometry"/>
                </mxCell>
                <mxCell id="178" value="" style="shape=mxgraph.cisco.computers_and_peripherals.workstation;sketch=0;html=1;pointerEvents=1;dashed=0;fillColor=#036897;strokeColor=#ffffff;strokeWidth=2;verticalLabelPosition=bottom;verticalAlign=top;align=center;outlineConnect=0;" parent="1" vertex="1">
                    <mxGeometry x="8800" y="740" width="83" height="62" as="geometry"/>
                </mxCell>
                <mxCell id="179" value="" style="shape=mxgraph.cisco.computers_and_peripherals.workstation;sketch=0;html=1;pointerEvents=1;dashed=0;fillColor=#036897;strokeColor=#ffffff;strokeWidth=2;verticalLabelPosition=bottom;verticalAlign=top;align=center;outlineConnect=0;" parent="1" vertex="1">
                    <mxGeometry x="8920" y="740" width="83" height="62" as="geometry"/>
                </mxCell>
                <mxCell id="180" value="" style="shape=mxgraph.cisco.computers_and_peripherals.workstation;sketch=0;html=1;pointerEvents=1;dashed=0;fillColor=#036897;strokeColor=#ffffff;strokeWidth=2;verticalLabelPosition=bottom;verticalAlign=top;align=center;outlineConnect=0;" parent="1" vertex="1">
                    <mxGeometry x="9040" y="740" width="83" height="62" as="geometry"/>
                </mxCell>
                <mxCell id="181" value="" style="shape=mxgraph.cisco.computers_and_peripherals.workstation;sketch=0;html=1;pointerEvents=1;dashed=0;fillColor=#036897;strokeColor=#ffffff;strokeWidth=2;verticalLabelPosition=bottom;verticalAlign=top;align=center;outlineConnect=0;" parent="1" vertex="1">
                    <mxGeometry x="9160" y="740" width="83" height="62" as="geometry"/>
                </mxCell>
                <mxCell id="182" value="" style="shape=mxgraph.cisco.computers_and_peripherals.workstation;sketch=0;html=1;pointerEvents=1;dashed=0;fillColor=#036897;strokeColor=#ffffff;strokeWidth=2;verticalLabelPosition=bottom;verticalAlign=top;align=center;outlineConnect=0;" parent="1" vertex="1">
                    <mxGeometry x="9280" y="740" width="83" height="62" as="geometry"/>
                </mxCell>
                <mxCell id="183" value="" style="shape=mxgraph.cisco.computers_and_peripherals.workstation;sketch=0;html=1;pointerEvents=1;dashed=0;fillColor=#036897;strokeColor=#ffffff;strokeWidth=2;verticalLabelPosition=bottom;verticalAlign=top;align=center;outlineConnect=0;" parent="1" vertex="1">
                    <mxGeometry x="9400" y="740" width="83" height="62" as="geometry"/>
                </mxCell>
                <mxCell id="184" value="" style="shape=mxgraph.cisco.computers_and_peripherals.workstation;sketch=0;html=1;pointerEvents=1;dashed=0;fillColor=#036897;strokeColor=#ffffff;strokeWidth=2;verticalLabelPosition=bottom;verticalAlign=top;align=center;outlineConnect=0;" parent="1" vertex="1">
                    <mxGeometry x="9520" y="740" width="83" height="62" as="geometry"/>
                </mxCell>
                <mxCell id="195" value="" style="shape=mxgraph.cisco.computers_and_peripherals.workstation;sketch=0;html=1;pointerEvents=1;dashed=0;fillColor=#036897;strokeColor=#ffffff;strokeWidth=2;verticalLabelPosition=bottom;verticalAlign=top;align=center;outlineConnect=0;" parent="1" vertex="1">
                    <mxGeometry x="9640" y="740" width="83" height="62" as="geometry"/>
                </mxCell>
                <mxCell id="203" style="edgeStyle=none;html=1;" parent="1" source="202" target="110" edge="1">
                    <mxGeometry relative="1" as="geometry"/>
                </mxCell>
                <mxCell id="502" value="&lt;span style=&quot;color: rgb(0, 0, 0);&quot;&gt;35 Mbps&lt;/span&gt;" style="edgeLabel;html=1;align=center;verticalAlign=middle;resizable=0;points=[];" parent="203" vertex="1" connectable="0">
                    <mxGeometry x="-0.0067" y="1" relative="1" as="geometry">
                        <mxPoint as="offset"/>
                    </mxGeometry>
                </mxCell>
                <mxCell id="204" style="edgeStyle=none;html=1;" parent="1" source="202" target="112" edge="1">
                    <mxGeometry relative="1" as="geometry"/>
                </mxCell>
                <mxCell id="503" value="&lt;span style=&quot;color: rgb(0, 0, 0);&quot;&gt;35 Mbps&lt;/span&gt;" style="edgeLabel;html=1;align=center;verticalAlign=middle;resizable=0;points=[];" parent="204" vertex="1" connectable="0">
                    <mxGeometry x="-0.0231" relative="1" as="geometry">
                        <mxPoint as="offset"/>
                    </mxGeometry>
                </mxCell>
                <mxCell id="205" style="edgeStyle=none;html=1;" parent="1" source="202" target="111" edge="1">
                    <mxGeometry relative="1" as="geometry"/>
                </mxCell>
                <mxCell id="504" value="&lt;span style=&quot;color: rgb(0, 0, 0);&quot;&gt;35 Mbps&lt;/span&gt;" style="edgeLabel;html=1;align=center;verticalAlign=middle;resizable=0;points=[];" parent="205" vertex="1" connectable="0">
                    <mxGeometry x="-0.0123" relative="1" as="geometry">
                        <mxPoint as="offset"/>
                    </mxGeometry>
                </mxCell>
                <mxCell id="202" value="" style="shape=mxgraph.cisco.switches.workgroup_switch;sketch=0;html=1;pointerEvents=1;dashed=0;fillColor=#036897;strokeColor=#ffffff;strokeWidth=2;verticalLabelPosition=bottom;verticalAlign=top;align=center;outlineConnect=0;" parent="1" vertex="1">
                    <mxGeometry x="871" y="650" width="101" height="50" as="geometry"/>
                </mxCell>
                <mxCell id="207" style="edgeStyle=none;html=1;" parent="1" source="206" target="115" edge="1">
                    <mxGeometry relative="1" as="geometry"/>
                </mxCell>
                <mxCell id="506" value="&lt;span style=&quot;color: rgb(0, 0, 0);&quot;&gt;35 Mbps&lt;/span&gt;" style="edgeLabel;html=1;align=center;verticalAlign=middle;resizable=0;points=[];" parent="207" vertex="1" connectable="0">
                    <mxGeometry x="-0.0615" relative="1" as="geometry">
                        <mxPoint as="offset"/>
                    </mxGeometry>
                </mxCell>
                <mxCell id="208" style="edgeStyle=none;html=1;" parent="1" source="206" target="113" edge="1">
                    <mxGeometry relative="1" as="geometry"/>
                </mxCell>
                <mxCell id="505" value="&lt;span style=&quot;color: rgb(0, 0, 0);&quot;&gt;35 Mbps&lt;/span&gt;" style="edgeLabel;html=1;align=center;verticalAlign=middle;resizable=0;points=[];" parent="208" vertex="1" connectable="0">
                    <mxGeometry x="0.0215" relative="1" as="geometry">
                        <mxPoint as="offset"/>
                    </mxGeometry>
                </mxCell>
                <mxCell id="209" style="edgeStyle=none;html=1;" parent="1" source="206" target="116" edge="1">
                    <mxGeometry relative="1" as="geometry"/>
                </mxCell>
                <mxCell id="206" value="" style="shape=mxgraph.cisco.switches.workgroup_switch;sketch=0;html=1;pointerEvents=1;dashed=0;fillColor=#036897;strokeColor=#ffffff;strokeWidth=2;verticalLabelPosition=bottom;verticalAlign=top;align=center;outlineConnect=0;" parent="1" vertex="1">
                    <mxGeometry x="1231" y="650" width="101" height="50" as="geometry"/>
                </mxCell>
                <mxCell id="211" style="edgeStyle=none;html=1;" parent="1" source="210" target="118" edge="1">
                    <mxGeometry relative="1" as="geometry"/>
                </mxCell>
                <mxCell id="510" value="&lt;span style=&quot;color: rgb(0, 0, 0);&quot;&gt;35 Mbps&lt;/span&gt;" style="edgeLabel;html=1;align=center;verticalAlign=middle;resizable=0;points=[];" parent="211" vertex="1" connectable="0">
                    <mxGeometry x="-0.0423" relative="1" as="geometry">
                        <mxPoint as="offset"/>
                    </mxGeometry>
                </mxCell>
                <mxCell id="212" style="edgeStyle=none;html=1;" parent="1" source="210" target="117" edge="1">
                    <mxGeometry relative="1" as="geometry"/>
                </mxCell>
                <mxCell id="508" value="&lt;span style=&quot;color: rgb(0, 0, 0);&quot;&gt;35 Mbps&lt;/span&gt;" style="edgeLabel;html=1;align=center;verticalAlign=middle;resizable=0;points=[];" parent="212" vertex="1" connectable="0">
                    <mxGeometry x="-0.0217" relative="1" as="geometry">
                        <mxPoint as="offset"/>
                    </mxGeometry>
                </mxCell>
                <mxCell id="213" style="edgeStyle=none;html=1;" parent="1" source="210" target="119" edge="1">
                    <mxGeometry relative="1" as="geometry"/>
                </mxCell>
                <mxCell id="511" value="&lt;span style=&quot;color: rgb(0, 0, 0);&quot;&gt;35 Mbps&lt;/span&gt;" style="edgeLabel;html=1;align=center;verticalAlign=middle;resizable=0;points=[];" parent="213" vertex="1" connectable="0">
                    <mxGeometry x="-0.0198" relative="1" as="geometry">
                        <mxPoint as="offset"/>
                    </mxGeometry>
                </mxCell>
                <mxCell id="210" value="" style="shape=mxgraph.cisco.switches.workgroup_switch;sketch=0;html=1;pointerEvents=1;dashed=0;fillColor=#036897;strokeColor=#ffffff;strokeWidth=2;verticalLabelPosition=bottom;verticalAlign=top;align=center;outlineConnect=0;" parent="1" vertex="1">
                    <mxGeometry x="1591" y="650" width="101" height="50" as="geometry"/>
                </mxCell>
                <mxCell id="217" style="edgeStyle=none;html=1;" parent="1" source="214" target="120" edge="1">
                    <mxGeometry relative="1" as="geometry"/>
                </mxCell>
                <mxCell id="513" value="&lt;span style=&quot;color: rgb(0, 0, 0);&quot;&gt;35 Mbps&lt;/span&gt;" style="edgeLabel;html=1;align=center;verticalAlign=middle;resizable=0;points=[];" parent="217" vertex="1" connectable="0">
                    <mxGeometry x="-0.0142" relative="1" as="geometry">
                        <mxPoint as="offset"/>
                    </mxGeometry>
                </mxCell>
                <mxCell id="218" style="edgeStyle=none;html=1;" parent="1" source="214" target="121" edge="1">
                    <mxGeometry relative="1" as="geometry"/>
                </mxCell>
                <mxCell id="515" value="&lt;span style=&quot;color: rgb(0, 0, 0);&quot;&gt;35 Mbps&lt;/span&gt;" style="edgeLabel;html=1;align=center;verticalAlign=middle;resizable=0;points=[];" parent="218" vertex="1" connectable="0">
                    <mxGeometry x="-0.0231" relative="1" as="geometry">
                        <mxPoint as="offset"/>
                    </mxGeometry>
                </mxCell>
                <mxCell id="219" style="edgeStyle=none;html=1;" parent="1" source="214" target="122" edge="1">
                    <mxGeometry relative="1" as="geometry"/>
                </mxCell>
                <mxCell id="516" value="&lt;span style=&quot;color: rgb(0, 0, 0);&quot;&gt;35 Mbps&lt;/span&gt;" style="edgeLabel;html=1;align=center;verticalAlign=middle;resizable=0;points=[];" parent="219" vertex="1" connectable="0">
                    <mxGeometry x="-0.0292" relative="1" as="geometry">
                        <mxPoint as="offset"/>
                    </mxGeometry>
                </mxCell>
                <mxCell id="214" value="" style="shape=mxgraph.cisco.switches.workgroup_switch;sketch=0;html=1;pointerEvents=1;dashed=0;fillColor=#036897;strokeColor=#ffffff;strokeWidth=2;verticalLabelPosition=bottom;verticalAlign=top;align=center;outlineConnect=0;" parent="1" vertex="1">
                    <mxGeometry x="1951" y="650" width="101" height="50" as="geometry"/>
                </mxCell>
                <mxCell id="220" style="edgeStyle=none;html=1;" parent="1" source="215" target="123" edge="1">
                    <mxGeometry relative="1" as="geometry"/>
                </mxCell>
                <mxCell id="517" value="&lt;span style=&quot;color: rgb(0, 0, 0);&quot;&gt;35 Mbps&lt;/span&gt;" style="edgeLabel;html=1;align=center;verticalAlign=middle;resizable=0;points=[];" parent="220" vertex="1" connectable="0">
                    <mxGeometry x="-0.001" y="1" relative="1" as="geometry">
                        <mxPoint as="offset"/>
                    </mxGeometry>
                </mxCell>
                <mxCell id="221" style="edgeStyle=none;html=1;" parent="1" source="215" target="124" edge="1">
                    <mxGeometry relative="1" as="geometry"/>
                </mxCell>
                <mxCell id="518" value="&lt;span style=&quot;color: rgb(0, 0, 0);&quot;&gt;35 Mbps&lt;/span&gt;" style="edgeLabel;html=1;align=center;verticalAlign=middle;resizable=0;points=[];" parent="221" vertex="1" connectable="0">
                    <mxGeometry x="-0.0231" relative="1" as="geometry">
                        <mxPoint as="offset"/>
                    </mxGeometry>
                </mxCell>
                <mxCell id="222" style="edgeStyle=none;html=1;" parent="1" source="215" target="125" edge="1">
                    <mxGeometry relative="1" as="geometry"/>
                </mxCell>
                <mxCell id="519" value="&lt;span style=&quot;color: rgb(0, 0, 0);&quot;&gt;35 Mbps&lt;/span&gt;" style="edgeLabel;html=1;align=center;verticalAlign=middle;resizable=0;points=[];" parent="222" vertex="1" connectable="0">
                    <mxGeometry x="0.0065" relative="1" as="geometry">
                        <mxPoint as="offset"/>
                    </mxGeometry>
                </mxCell>
                <mxCell id="215" value="" style="shape=mxgraph.cisco.switches.workgroup_switch;sketch=0;html=1;pointerEvents=1;dashed=0;fillColor=#036897;strokeColor=#ffffff;strokeWidth=2;verticalLabelPosition=bottom;verticalAlign=top;align=center;outlineConnect=0;" parent="1" vertex="1">
                    <mxGeometry x="2311" y="650" width="101" height="50" as="geometry"/>
                </mxCell>
                <mxCell id="223" style="edgeStyle=none;html=1;" parent="1" source="216" target="126" edge="1">
                    <mxGeometry relative="1" as="geometry"/>
                </mxCell>
                <mxCell id="522" value="&lt;span style=&quot;color: rgb(0, 0, 0);&quot;&gt;35 Mbps&lt;/span&gt;" style="edgeLabel;html=1;align=center;verticalAlign=middle;resizable=0;points=[];" parent="223" vertex="1" connectable="0">
                    <mxGeometry x="-0.0292" relative="1" as="geometry">
                        <mxPoint as="offset"/>
                    </mxGeometry>
                </mxCell>
                <mxCell id="224" style="edgeStyle=none;html=1;" parent="1" source="216" target="127" edge="1">
                    <mxGeometry relative="1" as="geometry"/>
                </mxCell>
                <mxCell id="523" value="&lt;span style=&quot;color: rgb(0, 0, 0);&quot;&gt;35 Mbps&lt;/span&gt;" style="edgeLabel;html=1;align=center;verticalAlign=middle;resizable=0;points=[];" parent="224" vertex="1" connectable="0">
                    <mxGeometry x="-0.0231" relative="1" as="geometry">
                        <mxPoint as="offset"/>
                    </mxGeometry>
                </mxCell>
                <mxCell id="225" style="edgeStyle=none;html=1;" parent="1" source="216" target="128" edge="1">
                    <mxGeometry relative="1" as="geometry"/>
                </mxCell>
                <mxCell id="524" value="&lt;span style=&quot;color: rgb(0, 0, 0);&quot;&gt;35 Mbps&lt;/span&gt;" style="edgeLabel;html=1;align=center;verticalAlign=middle;resizable=0;points=[];" parent="225" vertex="1" connectable="0">
                    <mxGeometry x="0.014" relative="1" as="geometry">
                        <mxPoint as="offset"/>
                    </mxGeometry>
                </mxCell>
                <mxCell id="216" value="" style="shape=mxgraph.cisco.switches.workgroup_switch;sketch=0;html=1;pointerEvents=1;dashed=0;fillColor=#036897;strokeColor=#ffffff;strokeWidth=2;verticalLabelPosition=bottom;verticalAlign=top;align=center;outlineConnect=0;" parent="1" vertex="1">
                    <mxGeometry x="2671" y="650" width="101" height="50" as="geometry"/>
                </mxCell>
                <mxCell id="229" style="edgeStyle=none;html=1;" parent="1" source="226" target="129" edge="1">
                    <mxGeometry relative="1" as="geometry"/>
                </mxCell>
                <mxCell id="526" value="&lt;span style=&quot;color: rgb(0, 0, 0);&quot;&gt;35 Mbps&lt;/span&gt;" style="edgeLabel;html=1;align=center;verticalAlign=middle;resizable=0;points=[];" parent="229" vertex="1" connectable="0">
                    <mxGeometry x="0.0144" relative="1" as="geometry">
                        <mxPoint as="offset"/>
                    </mxGeometry>
                </mxCell>
                <mxCell id="230" style="edgeStyle=none;html=1;" parent="1" source="226" target="130" edge="1">
                    <mxGeometry relative="1" as="geometry"/>
                </mxCell>
                <mxCell id="527" value="&lt;span style=&quot;color: rgb(0, 0, 0);&quot;&gt;35 Mbps&lt;/span&gt;" style="edgeLabel;html=1;align=center;verticalAlign=middle;resizable=0;points=[];" parent="230" vertex="1" connectable="0">
                    <mxGeometry x="-0.021" relative="1" as="geometry">
                        <mxPoint as="offset"/>
                    </mxGeometry>
                </mxCell>
                <mxCell id="231" style="edgeStyle=none;html=1;" parent="1" source="226" target="131" edge="1">
                    <mxGeometry relative="1" as="geometry"/>
                </mxCell>
                <mxCell id="528" value="&lt;span style=&quot;color: rgb(0, 0, 0);&quot;&gt;35 Mbps&lt;/span&gt;" style="edgeLabel;html=1;align=center;verticalAlign=middle;resizable=0;points=[];" parent="231" vertex="1" connectable="0">
                    <mxGeometry x="0.0199" relative="1" as="geometry">
                        <mxPoint as="offset"/>
                    </mxGeometry>
                </mxCell>
                <mxCell id="226" value="" style="shape=mxgraph.cisco.switches.workgroup_switch;sketch=0;html=1;pointerEvents=1;dashed=0;fillColor=#036897;strokeColor=#ffffff;strokeWidth=2;verticalLabelPosition=bottom;verticalAlign=top;align=center;outlineConnect=0;" parent="1" vertex="1">
                    <mxGeometry x="3031" y="650" width="101" height="50" as="geometry"/>
                </mxCell>
                <mxCell id="232" style="edgeStyle=none;html=1;" parent="1" source="227" target="132" edge="1">
                    <mxGeometry relative="1" as="geometry"/>
                </mxCell>
                <mxCell id="529" value="&lt;span style=&quot;color: rgb(0, 0, 0);&quot;&gt;35 Mbps&lt;/span&gt;" style="edgeLabel;html=1;align=center;verticalAlign=middle;resizable=0;points=[];" parent="232" vertex="1" connectable="0">
                    <mxGeometry x="-0.0013" relative="1" as="geometry">
                        <mxPoint as="offset"/>
                    </mxGeometry>
                </mxCell>
                <mxCell id="233" style="edgeStyle=none;html=1;" parent="1" source="227" target="134" edge="1">
                    <mxGeometry relative="1" as="geometry"/>
                </mxCell>
                <mxCell id="531" value="&lt;span style=&quot;color: rgb(0, 0, 0);&quot;&gt;35 Mbps&lt;/span&gt;" style="edgeLabel;html=1;align=center;verticalAlign=middle;resizable=0;points=[];" parent="233" vertex="1" connectable="0">
                    <mxGeometry x="0.0247" relative="1" as="geometry">
                        <mxPoint as="offset"/>
                    </mxGeometry>
                </mxCell>
                <mxCell id="234" style="edgeStyle=none;html=1;" parent="1" source="227" target="133" edge="1">
                    <mxGeometry relative="1" as="geometry"/>
                </mxCell>
                <mxCell id="530" value="&lt;span style=&quot;color: rgb(0, 0, 0);&quot;&gt;35 Mbps&lt;/span&gt;" style="edgeLabel;html=1;align=center;verticalAlign=middle;resizable=0;points=[];" parent="234" vertex="1" connectable="0">
                    <mxGeometry x="-0.0048" relative="1" as="geometry">
                        <mxPoint as="offset"/>
                    </mxGeometry>
                </mxCell>
                <mxCell id="227" value="" style="shape=mxgraph.cisco.switches.workgroup_switch;sketch=0;html=1;pointerEvents=1;dashed=0;fillColor=#036897;strokeColor=#ffffff;strokeWidth=2;verticalLabelPosition=bottom;verticalAlign=top;align=center;outlineConnect=0;" parent="1" vertex="1">
                    <mxGeometry x="3391" y="650" width="101" height="50" as="geometry"/>
                </mxCell>
                <mxCell id="235" style="edgeStyle=none;html=1;" parent="1" source="228" target="135" edge="1">
                    <mxGeometry relative="1" as="geometry"/>
                </mxCell>
                <mxCell id="534" value="&lt;span style=&quot;color: rgb(0, 0, 0);&quot;&gt;35 Mbps&lt;/span&gt;" style="edgeLabel;html=1;align=center;verticalAlign=middle;resizable=0;points=[];" parent="235" vertex="1" connectable="0">
                    <mxGeometry x="0.0066" relative="1" as="geometry">
                        <mxPoint as="offset"/>
                    </mxGeometry>
                </mxCell>
                <mxCell id="236" style="edgeStyle=none;html=1;" parent="1" source="228" target="137" edge="1">
                    <mxGeometry relative="1" as="geometry"/>
                </mxCell>
                <mxCell id="536" value="&lt;span style=&quot;color: rgb(0, 0, 0);&quot;&gt;35 Mbps&lt;/span&gt;" style="edgeLabel;html=1;align=center;verticalAlign=middle;resizable=0;points=[];" parent="236" vertex="1" connectable="0">
                    <mxGeometry x="0.0168" y="-1" relative="1" as="geometry">
                        <mxPoint as="offset"/>
                    </mxGeometry>
                </mxCell>
                <mxCell id="237" style="edgeStyle=none;html=1;" parent="1" source="228" target="136" edge="1">
                    <mxGeometry relative="1" as="geometry"/>
                </mxCell>
                <mxCell id="535" value="&lt;span style=&quot;color: rgb(0, 0, 0);&quot;&gt;35 Mbps&lt;/span&gt;" style="edgeLabel;html=1;align=center;verticalAlign=middle;resizable=0;points=[];" parent="237" vertex="1" connectable="0">
                    <mxGeometry x="-0.0048" relative="1" as="geometry">
                        <mxPoint as="offset"/>
                    </mxGeometry>
                </mxCell>
                <mxCell id="228" value="" style="shape=mxgraph.cisco.switches.workgroup_switch;sketch=0;html=1;pointerEvents=1;dashed=0;fillColor=#036897;strokeColor=#ffffff;strokeWidth=2;verticalLabelPosition=bottom;verticalAlign=top;align=center;outlineConnect=0;" parent="1" vertex="1">
                    <mxGeometry x="3751" y="650" width="101" height="50" as="geometry"/>
                </mxCell>
                <mxCell id="241" style="edgeStyle=none;html=1;" parent="1" source="238" target="138" edge="1">
                    <mxGeometry relative="1" as="geometry"/>
                </mxCell>
                <mxCell id="539" value="&lt;span style=&quot;color: rgb(0, 0, 0);&quot;&gt;35 Mbps&lt;/span&gt;" style="edgeLabel;html=1;align=center;verticalAlign=middle;resizable=0;points=[];" parent="241" vertex="1" connectable="0">
                    <mxGeometry x="0.0081" relative="1" as="geometry">
                        <mxPoint as="offset"/>
                    </mxGeometry>
                </mxCell>
                <mxCell id="242" style="edgeStyle=none;html=1;" parent="1" source="238" target="140" edge="1">
                    <mxGeometry relative="1" as="geometry"/>
                </mxCell>
                <mxCell id="537" value="&lt;span style=&quot;color: rgb(0, 0, 0);&quot;&gt;35 Mbps&lt;/span&gt;" style="edgeLabel;html=1;align=center;verticalAlign=middle;resizable=0;points=[];" parent="242" vertex="1" connectable="0">
                    <mxGeometry x="-0.0178" relative="1" as="geometry">
                        <mxPoint as="offset"/>
                    </mxGeometry>
                </mxCell>
                <mxCell id="243" style="edgeStyle=none;html=1;" parent="1" source="238" target="139" edge="1">
                    <mxGeometry relative="1" as="geometry"/>
                </mxCell>
                <mxCell id="538" value="&lt;span style=&quot;color: rgb(0, 0, 0);&quot;&gt;35 Mbps&lt;/span&gt;" style="edgeLabel;html=1;align=center;verticalAlign=middle;resizable=0;points=[];" parent="243" vertex="1" connectable="0">
                    <mxGeometry x="-0.0048" relative="1" as="geometry">
                        <mxPoint as="offset"/>
                    </mxGeometry>
                </mxCell>
                <mxCell id="238" value="" style="shape=mxgraph.cisco.switches.workgroup_switch;sketch=0;html=1;pointerEvents=1;dashed=0;fillColor=#036897;strokeColor=#ffffff;strokeWidth=2;verticalLabelPosition=bottom;verticalAlign=top;align=center;outlineConnect=0;" parent="1" vertex="1">
                    <mxGeometry x="4111" y="650" width="101" height="50" as="geometry"/>
                </mxCell>
                <mxCell id="244" style="edgeStyle=none;html=1;" parent="1" source="239" target="141" edge="1">
                    <mxGeometry relative="1" as="geometry"/>
                </mxCell>
                <mxCell id="245" style="edgeStyle=none;html=1;" parent="1" source="239" target="143" edge="1">
                    <mxGeometry relative="1" as="geometry"/>
                </mxCell>
                <mxCell id="246" style="edgeStyle=none;html=1;" parent="1" source="239" target="142" edge="1">
                    <mxGeometry relative="1" as="geometry"/>
                </mxCell>
                <mxCell id="239" value="" style="shape=mxgraph.cisco.switches.workgroup_switch;sketch=0;html=1;pointerEvents=1;dashed=0;fillColor=#036897;strokeColor=#ffffff;strokeWidth=2;verticalLabelPosition=bottom;verticalAlign=top;align=center;outlineConnect=0;" parent="1" vertex="1">
                    <mxGeometry x="4471" y="650" width="101" height="50" as="geometry"/>
                </mxCell>
                <mxCell id="248" style="edgeStyle=none;html=1;" parent="1" source="240" target="144" edge="1">
                    <mxGeometry relative="1" as="geometry"/>
                </mxCell>
                <mxCell id="547" value="&lt;span style=&quot;color: rgb(0, 0, 0);&quot;&gt;35 Mbps&lt;/span&gt;" style="edgeLabel;html=1;align=center;verticalAlign=middle;resizable=0;points=[];" parent="248" vertex="1" connectable="0">
                    <mxGeometry x="0.0204" relative="1" as="geometry">
                        <mxPoint as="offset"/>
                    </mxGeometry>
                </mxCell>
                <mxCell id="249" style="edgeStyle=none;html=1;" parent="1" source="240" target="146" edge="1">
                    <mxGeometry relative="1" as="geometry"/>
                </mxCell>
                <mxCell id="549" value="&lt;span style=&quot;color: rgb(0, 0, 0);&quot;&gt;35 Mbps&lt;/span&gt;" style="edgeLabel;html=1;align=center;verticalAlign=middle;resizable=0;points=[];" parent="249" vertex="1" connectable="0">
                    <mxGeometry x="-0.004" relative="1" as="geometry">
                        <mxPoint as="offset"/>
                    </mxGeometry>
                </mxCell>
                <mxCell id="250" style="edgeStyle=none;html=1;" parent="1" source="240" target="145" edge="1">
                    <mxGeometry relative="1" as="geometry"/>
                </mxCell>
                <mxCell id="548" value="&lt;span style=&quot;color: rgb(0, 0, 0);&quot;&gt;35 Mbps&lt;/span&gt;" style="edgeLabel;html=1;align=center;verticalAlign=middle;resizable=0;points=[];" parent="250" vertex="1" connectable="0">
                    <mxGeometry x="0.0744" relative="1" as="geometry">
                        <mxPoint as="offset"/>
                    </mxGeometry>
                </mxCell>
                <mxCell id="240" value="" style="shape=mxgraph.cisco.switches.workgroup_switch;sketch=0;html=1;pointerEvents=1;dashed=0;fillColor=#036897;strokeColor=#ffffff;strokeWidth=2;verticalLabelPosition=bottom;verticalAlign=top;align=center;outlineConnect=0;" parent="1" vertex="1">
                    <mxGeometry x="4831" y="650" width="101" height="50" as="geometry"/>
                </mxCell>
                <mxCell id="254" style="edgeStyle=none;html=1;" parent="1" source="251" target="147" edge="1">
                    <mxGeometry relative="1" as="geometry"/>
                </mxCell>
                <mxCell id="550" value="&lt;span style=&quot;color: rgb(0, 0, 0);&quot;&gt;35 Mbps&lt;/span&gt;" style="edgeLabel;html=1;align=center;verticalAlign=middle;resizable=0;points=[];" parent="254" vertex="1" connectable="0">
                    <mxGeometry x="-0.0075" relative="1" as="geometry">
                        <mxPoint as="offset"/>
                    </mxGeometry>
                </mxCell>
                <mxCell id="255" style="edgeStyle=none;html=1;" parent="1" source="251" target="148" edge="1">
                    <mxGeometry relative="1" as="geometry"/>
                </mxCell>
                <mxCell id="551" value="&lt;span style=&quot;color: rgb(0, 0, 0);&quot;&gt;35 Mbps&lt;/span&gt;" style="edgeLabel;html=1;align=center;verticalAlign=middle;resizable=0;points=[];" parent="255" vertex="1" connectable="0">
                    <mxGeometry x="0.0041" y="-1" relative="1" as="geometry">
                        <mxPoint as="offset"/>
                    </mxGeometry>
                </mxCell>
                <mxCell id="256" style="edgeStyle=none;html=1;" parent="1" source="251" target="149" edge="1">
                    <mxGeometry relative="1" as="geometry"/>
                </mxCell>
                <mxCell id="552" value="&lt;span style=&quot;color: rgb(0, 0, 0);&quot;&gt;35 Mbps&lt;/span&gt;" style="edgeLabel;html=1;align=center;verticalAlign=middle;resizable=0;points=[];" parent="256" vertex="1" connectable="0">
                    <mxGeometry x="-0.0147" relative="1" as="geometry">
                        <mxPoint as="offset"/>
                    </mxGeometry>
                </mxCell>
                <mxCell id="251" value="" style="shape=mxgraph.cisco.switches.workgroup_switch;sketch=0;html=1;pointerEvents=1;dashed=0;fillColor=#036897;strokeColor=#ffffff;strokeWidth=2;verticalLabelPosition=bottom;verticalAlign=top;align=center;outlineConnect=0;" parent="1" vertex="1">
                    <mxGeometry x="5191" y="650" width="101" height="50" as="geometry"/>
                </mxCell>
                <mxCell id="257" style="edgeStyle=none;html=1;" parent="1" source="252" target="150" edge="1">
                    <mxGeometry relative="1" as="geometry"/>
                </mxCell>
                <mxCell id="553" value="&lt;span style=&quot;color: rgb(0, 0, 0);&quot;&gt;35 Mbps&lt;/span&gt;" style="edgeLabel;html=1;align=center;verticalAlign=middle;resizable=0;points=[];" parent="257" vertex="1" connectable="0">
                    <mxGeometry x="-0.0023" y="1" relative="1" as="geometry">
                        <mxPoint as="offset"/>
                    </mxGeometry>
                </mxCell>
                <mxCell id="258" style="edgeStyle=none;html=1;" parent="1" source="252" target="152" edge="1">
                    <mxGeometry relative="1" as="geometry"/>
                </mxCell>
                <mxCell id="557" value="&lt;span style=&quot;color: rgb(0, 0, 0);&quot;&gt;35 Mbps&lt;/span&gt;" style="edgeLabel;html=1;align=center;verticalAlign=middle;resizable=0;points=[];" parent="258" vertex="1" connectable="0">
                    <mxGeometry x="-0.0335" y="1" relative="1" as="geometry">
                        <mxPoint as="offset"/>
                    </mxGeometry>
                </mxCell>
                <mxCell id="259" style="edgeStyle=none;html=1;" parent="1" source="252" target="151" edge="1">
                    <mxGeometry relative="1" as="geometry"/>
                </mxCell>
                <mxCell id="558" value="&lt;span style=&quot;color: rgb(0, 0, 0);&quot;&gt;35 Mbps&lt;/span&gt;" style="edgeLabel;html=1;align=center;verticalAlign=middle;resizable=0;points=[];" parent="259" vertex="1" connectable="0">
                    <mxGeometry x="0.0047" relative="1" as="geometry">
                        <mxPoint as="offset"/>
                    </mxGeometry>
                </mxCell>
                <mxCell id="252" value="" style="shape=mxgraph.cisco.switches.workgroup_switch;sketch=0;html=1;pointerEvents=1;dashed=0;fillColor=#036897;strokeColor=#ffffff;strokeWidth=2;verticalLabelPosition=bottom;verticalAlign=top;align=center;outlineConnect=0;" parent="1" vertex="1">
                    <mxGeometry x="5551" y="650" width="101" height="50" as="geometry"/>
                </mxCell>
                <mxCell id="260" style="edgeStyle=none;html=1;" parent="1" source="253" target="153" edge="1">
                    <mxGeometry relative="1" as="geometry"/>
                </mxCell>
                <mxCell id="559" value="&lt;span style=&quot;color: rgb(0, 0, 0);&quot;&gt;35 Mbps&lt;/span&gt;" style="edgeLabel;html=1;align=center;verticalAlign=middle;resizable=0;points=[];" parent="260" vertex="1" connectable="0">
                    <mxGeometry x="0.0272" y="1" relative="1" as="geometry">
                        <mxPoint as="offset"/>
                    </mxGeometry>
                </mxCell>
                <mxCell id="261" style="edgeStyle=none;html=1;" parent="1" source="253" target="155" edge="1">
                    <mxGeometry relative="1" as="geometry"/>
                </mxCell>
                <mxCell id="561" value="&lt;span style=&quot;color: rgb(0, 0, 0);&quot;&gt;35 Mbps&lt;/span&gt;" style="edgeLabel;html=1;align=center;verticalAlign=middle;resizable=0;points=[];" parent="261" vertex="1" connectable="0">
                    <mxGeometry x="0.0051" relative="1" as="geometry">
                        <mxPoint as="offset"/>
                    </mxGeometry>
                </mxCell>
                <mxCell id="262" style="edgeStyle=none;html=1;" parent="1" source="253" target="154" edge="1">
                    <mxGeometry relative="1" as="geometry"/>
                </mxCell>
                <mxCell id="560" value="&lt;span style=&quot;color: rgb(0, 0, 0);&quot;&gt;35 Mbps&lt;/span&gt;" style="edgeLabel;html=1;align=center;verticalAlign=middle;resizable=0;points=[];" parent="262" vertex="1" connectable="0">
                    <mxGeometry x="0.0047" relative="1" as="geometry">
                        <mxPoint as="offset"/>
                    </mxGeometry>
                </mxCell>
                <mxCell id="253" value="" style="shape=mxgraph.cisco.switches.workgroup_switch;sketch=0;html=1;pointerEvents=1;dashed=0;fillColor=#036897;strokeColor=#ffffff;strokeWidth=2;verticalLabelPosition=bottom;verticalAlign=top;align=center;outlineConnect=0;" parent="1" vertex="1">
                    <mxGeometry x="5911" y="650" width="101" height="50" as="geometry"/>
                </mxCell>
                <mxCell id="266" style="edgeStyle=none;html=1;" parent="1" source="263" target="156" edge="1">
                    <mxGeometry relative="1" as="geometry"/>
                </mxCell>
                <mxCell id="563" value="&lt;span style=&quot;color: rgb(0, 0, 0);&quot;&gt;35 Mbps&lt;/span&gt;" style="edgeLabel;html=1;align=center;verticalAlign=middle;resizable=0;points=[];" parent="266" vertex="1" connectable="0">
                    <mxGeometry x="0.0159" y="-1" relative="1" as="geometry">
                        <mxPoint as="offset"/>
                    </mxGeometry>
                </mxCell>
                <mxCell id="267" style="edgeStyle=none;html=1;" parent="1" source="263" target="158" edge="1">
                    <mxGeometry relative="1" as="geometry"/>
                </mxCell>
                <mxCell id="565" value="&lt;span style=&quot;color: rgb(0, 0, 0);&quot;&gt;35 Mbps&lt;/span&gt;" style="edgeLabel;html=1;align=center;verticalAlign=middle;resizable=0;points=[];" parent="267" vertex="1" connectable="0">
                    <mxGeometry x="-0.0721" y="-1" relative="1" as="geometry">
                        <mxPoint as="offset"/>
                    </mxGeometry>
                </mxCell>
                <mxCell id="268" style="edgeStyle=none;html=1;" parent="1" source="263" target="157" edge="1">
                    <mxGeometry relative="1" as="geometry"/>
                </mxCell>
                <mxCell id="564" value="&lt;span style=&quot;color: rgb(0, 0, 0);&quot;&gt;35 Mbps&lt;/span&gt;" style="edgeLabel;html=1;align=center;verticalAlign=middle;resizable=0;points=[];" parent="268" vertex="1" connectable="0">
                    <mxGeometry x="-0.0419" relative="1" as="geometry">
                        <mxPoint as="offset"/>
                    </mxGeometry>
                </mxCell>
                <mxCell id="263" value="" style="shape=mxgraph.cisco.switches.workgroup_switch;sketch=0;html=1;pointerEvents=1;dashed=0;fillColor=#036897;strokeColor=#ffffff;strokeWidth=2;verticalLabelPosition=bottom;verticalAlign=top;align=center;outlineConnect=0;" parent="1" vertex="1">
                    <mxGeometry x="6271" y="650" width="101" height="50" as="geometry"/>
                </mxCell>
                <mxCell id="269" style="edgeStyle=none;html=1;" parent="1" source="264" target="159" edge="1">
                    <mxGeometry relative="1" as="geometry"/>
                </mxCell>
                <mxCell id="568" value="&lt;span style=&quot;color: rgb(0, 0, 0);&quot;&gt;35 Mbps&lt;/span&gt;" style="edgeLabel;html=1;align=center;verticalAlign=middle;resizable=0;points=[];" parent="269" vertex="1" connectable="0">
                    <mxGeometry x="-0.0032" relative="1" as="geometry">
                        <mxPoint as="offset"/>
                    </mxGeometry>
                </mxCell>
                <mxCell id="270" style="edgeStyle=none;html=1;" parent="1" source="264" target="161" edge="1">
                    <mxGeometry relative="1" as="geometry"/>
                </mxCell>
                <mxCell id="570" value="&lt;span style=&quot;color: rgb(0, 0, 0);&quot;&gt;35 Mbps&lt;/span&gt;" style="edgeLabel;html=1;align=center;verticalAlign=middle;resizable=0;points=[];" parent="270" vertex="1" connectable="0">
                    <mxGeometry x="-0.009" relative="1" as="geometry">
                        <mxPoint as="offset"/>
                    </mxGeometry>
                </mxCell>
                <mxCell id="271" style="edgeStyle=none;html=1;" parent="1" source="264" target="160" edge="1">
                    <mxGeometry relative="1" as="geometry"/>
                </mxCell>
                <mxCell id="569" value="&lt;span style=&quot;color: rgb(0, 0, 0);&quot;&gt;35 Mbps&lt;/span&gt;" style="edgeLabel;html=1;align=center;verticalAlign=middle;resizable=0;points=[];" parent="271" vertex="1" connectable="0">
                    <mxGeometry x="0.0119" relative="1" as="geometry">
                        <mxPoint as="offset"/>
                    </mxGeometry>
                </mxCell>
                <mxCell id="264" value="" style="shape=mxgraph.cisco.switches.workgroup_switch;sketch=0;html=1;pointerEvents=1;dashed=0;fillColor=#036897;strokeColor=#ffffff;strokeWidth=2;verticalLabelPosition=bottom;verticalAlign=top;align=center;outlineConnect=0;" parent="1" vertex="1">
                    <mxGeometry x="6631" y="650" width="101" height="50" as="geometry"/>
                </mxCell>
                <mxCell id="272" style="edgeStyle=none;html=1;" parent="1" source="265" target="162" edge="1">
                    <mxGeometry relative="1" as="geometry"/>
                </mxCell>
                <mxCell id="571" value="&lt;span style=&quot;color: rgb(0, 0, 0);&quot;&gt;35 Mbps&lt;/span&gt;" style="edgeLabel;html=1;align=center;verticalAlign=middle;resizable=0;points=[];" parent="272" vertex="1" connectable="0">
                    <mxGeometry x="0.0177" relative="1" as="geometry">
                        <mxPoint as="offset"/>
                    </mxGeometry>
                </mxCell>
                <mxCell id="273" style="edgeStyle=none;html=1;" parent="1" source="265" target="164" edge="1">
                    <mxGeometry relative="1" as="geometry"/>
                </mxCell>
                <mxCell id="574" value="&lt;span style=&quot;color: rgb(0, 0, 0);&quot;&gt;35 Mbps&lt;/span&gt;" style="edgeLabel;html=1;align=center;verticalAlign=middle;resizable=0;points=[];" parent="273" vertex="1" connectable="0">
                    <mxGeometry x="0.0003" relative="1" as="geometry">
                        <mxPoint as="offset"/>
                    </mxGeometry>
                </mxCell>
                <mxCell id="274" style="edgeStyle=none;html=1;" parent="1" source="265" target="163" edge="1">
                    <mxGeometry relative="1" as="geometry"/>
                </mxCell>
                <mxCell id="573" value="&lt;span style=&quot;color: rgb(0, 0, 0);&quot;&gt;35 Mbps&lt;/span&gt;" style="edgeLabel;html=1;align=center;verticalAlign=middle;resizable=0;points=[];" parent="274" vertex="1" connectable="0">
                    <mxGeometry x="-0.0119" relative="1" as="geometry">
                        <mxPoint as="offset"/>
                    </mxGeometry>
                </mxCell>
                <mxCell id="265" value="" style="shape=mxgraph.cisco.switches.workgroup_switch;sketch=0;html=1;pointerEvents=1;dashed=0;fillColor=#036897;strokeColor=#ffffff;strokeWidth=2;verticalLabelPosition=bottom;verticalAlign=top;align=center;outlineConnect=0;" parent="1" vertex="1">
                    <mxGeometry x="6991" y="650" width="101" height="50" as="geometry"/>
                </mxCell>
                <mxCell id="278" style="edgeStyle=none;html=1;" parent="1" source="276" target="165" edge="1">
                    <mxGeometry relative="1" as="geometry"/>
                </mxCell>
                <mxCell id="576" value="&lt;span style=&quot;color: rgb(0, 0, 0);&quot;&gt;35 Mbps&lt;/span&gt;" style="edgeLabel;html=1;align=center;verticalAlign=middle;resizable=0;points=[];" parent="278" vertex="1" connectable="0">
                    <mxGeometry x="0.0061" relative="1" as="geometry">
                        <mxPoint as="offset"/>
                    </mxGeometry>
                </mxCell>
                <mxCell id="279" style="edgeStyle=none;html=1;" parent="1" source="276" target="166" edge="1">
                    <mxGeometry relative="1" as="geometry"/>
                </mxCell>
                <mxCell id="577" value="&lt;span style=&quot;color: rgb(0, 0, 0);&quot;&gt;35 Mbps&lt;/span&gt;" style="edgeLabel;html=1;align=center;verticalAlign=middle;resizable=0;points=[];" parent="279" vertex="1" connectable="0">
                    <mxGeometry x="0.0595" y="1" relative="1" as="geometry">
                        <mxPoint as="offset"/>
                    </mxGeometry>
                </mxCell>
                <mxCell id="280" style="edgeStyle=none;html=1;" parent="1" source="276" target="167" edge="1">
                    <mxGeometry relative="1" as="geometry"/>
                </mxCell>
                <mxCell id="578" value="&lt;span style=&quot;color: rgb(0, 0, 0);&quot;&gt;35 Mbps&lt;/span&gt;" style="edgeLabel;html=1;align=center;verticalAlign=middle;resizable=0;points=[];" parent="280" vertex="1" connectable="0">
                    <mxGeometry x="-0.009" relative="1" as="geometry">
                        <mxPoint as="offset"/>
                    </mxGeometry>
                </mxCell>
                <mxCell id="276" value="" style="shape=mxgraph.cisco.switches.workgroup_switch;sketch=0;html=1;pointerEvents=1;dashed=0;fillColor=#036897;strokeColor=#ffffff;strokeWidth=2;verticalLabelPosition=bottom;verticalAlign=top;align=center;outlineConnect=0;" parent="1" vertex="1">
                    <mxGeometry x="7351" y="650" width="101" height="50" as="geometry"/>
                </mxCell>
                <mxCell id="281" style="edgeStyle=none;html=1;" parent="1" source="277" target="168" edge="1">
                    <mxGeometry relative="1" as="geometry"/>
                </mxCell>
                <mxCell id="580" value="&lt;span style=&quot;color: rgb(0, 0, 0);&quot;&gt;35 Mbps&lt;/span&gt;" style="edgeLabel;html=1;align=center;verticalAlign=middle;resizable=0;points=[];" parent="281" vertex="1" connectable="0">
                    <mxGeometry x="-0.0171" y="1" relative="1" as="geometry">
                        <mxPoint as="offset"/>
                    </mxGeometry>
                </mxCell>
                <mxCell id="282" style="edgeStyle=none;html=1;" parent="1" source="277" target="170" edge="1">
                    <mxGeometry relative="1" as="geometry"/>
                </mxCell>
                <mxCell id="582" value="&lt;span style=&quot;color: rgb(0, 0, 0);&quot;&gt;35 Mbps&lt;/span&gt;" style="edgeLabel;html=1;align=center;verticalAlign=middle;resizable=0;points=[];" parent="282" vertex="1" connectable="0">
                    <mxGeometry x="0.0003" relative="1" as="geometry">
                        <mxPoint as="offset"/>
                    </mxGeometry>
                </mxCell>
                <mxCell id="283" style="edgeStyle=none;html=1;" parent="1" source="277" target="169" edge="1">
                    <mxGeometry relative="1" as="geometry"/>
                </mxCell>
                <mxCell id="581" value="&lt;span style=&quot;color: rgb(0, 0, 0);&quot;&gt;35 Mbps&lt;/span&gt;" style="edgeLabel;html=1;align=center;verticalAlign=middle;resizable=0;points=[];" parent="283" vertex="1" connectable="0">
                    <mxGeometry x="0.0595" relative="1" as="geometry">
                        <mxPoint as="offset"/>
                    </mxGeometry>
                </mxCell>
                <mxCell id="277" value="" style="shape=mxgraph.cisco.switches.workgroup_switch;sketch=0;html=1;pointerEvents=1;dashed=0;fillColor=#036897;strokeColor=#ffffff;strokeWidth=2;verticalLabelPosition=bottom;verticalAlign=top;align=center;outlineConnect=0;" parent="1" vertex="1">
                    <mxGeometry x="7711" y="650" width="101" height="50" as="geometry"/>
                </mxCell>
                <mxCell id="287" style="edgeStyle=none;html=1;" parent="1" source="284" target="171" edge="1">
                    <mxGeometry relative="1" as="geometry"/>
                </mxCell>
                <mxCell id="589" value="&lt;span style=&quot;color: rgb(0, 0, 0);&quot;&gt;35 Mbps&lt;/span&gt;" style="edgeLabel;html=1;align=center;verticalAlign=middle;resizable=0;points=[];" parent="287" vertex="1" connectable="0">
                    <mxGeometry x="-0.0009" y="-1" relative="1" as="geometry">
                        <mxPoint as="offset"/>
                    </mxGeometry>
                </mxCell>
                <mxCell id="288" style="edgeStyle=none;html=1;" parent="1" source="284" target="173" edge="1">
                    <mxGeometry relative="1" as="geometry"/>
                </mxCell>
                <mxCell id="587" value="&lt;span style=&quot;color: rgb(0, 0, 0);&quot;&gt;35 Mbps&lt;/span&gt;" style="edgeLabel;html=1;align=center;verticalAlign=middle;resizable=0;points=[];" parent="288" vertex="1" connectable="0">
                    <mxGeometry x="-0.0346" y="-1" relative="1" as="geometry">
                        <mxPoint as="offset"/>
                    </mxGeometry>
                </mxCell>
                <mxCell id="289" style="edgeStyle=none;html=1;" parent="1" source="284" target="172" edge="1">
                    <mxGeometry relative="1" as="geometry"/>
                </mxCell>
                <mxCell id="588" value="&lt;span style=&quot;color: rgb(0, 0, 0);&quot;&gt;35 Mbps&lt;/span&gt;" style="edgeLabel;html=1;align=center;verticalAlign=middle;resizable=0;points=[];" parent="289" vertex="1" connectable="0">
                    <mxGeometry x="0.0119" relative="1" as="geometry">
                        <mxPoint as="offset"/>
                    </mxGeometry>
                </mxCell>
                <mxCell id="284" value="" style="shape=mxgraph.cisco.switches.workgroup_switch;sketch=0;html=1;pointerEvents=1;dashed=0;fillColor=#036897;strokeColor=#ffffff;strokeWidth=2;verticalLabelPosition=bottom;verticalAlign=top;align=center;outlineConnect=0;" parent="1" vertex="1">
                    <mxGeometry x="8071" y="650" width="101" height="50" as="geometry"/>
                </mxCell>
                <mxCell id="290" style="edgeStyle=none;html=1;" parent="1" source="285" target="174" edge="1">
                    <mxGeometry relative="1" as="geometry"/>
                </mxCell>
                <mxCell id="590" value="&lt;span style=&quot;color: rgb(0, 0, 0);&quot;&gt;35 Mbps&lt;/span&gt;" style="edgeLabel;html=1;align=center;verticalAlign=middle;resizable=0;points=[];" parent="290" vertex="1" connectable="0">
                    <mxGeometry x="-0.0125" y="-1" relative="1" as="geometry">
                        <mxPoint as="offset"/>
                    </mxGeometry>
                </mxCell>
                <mxCell id="291" style="edgeStyle=none;html=1;" parent="1" source="285" target="176" edge="1">
                    <mxGeometry relative="1" as="geometry"/>
                </mxCell>
                <mxCell id="592" value="&lt;span style=&quot;color: rgb(0, 0, 0);&quot;&gt;35 Mbps&lt;/span&gt;" style="edgeLabel;html=1;align=center;verticalAlign=middle;resizable=0;points=[];" parent="291" vertex="1" connectable="0">
                    <mxGeometry x="0.0049" y="1" relative="1" as="geometry">
                        <mxPoint as="offset"/>
                    </mxGeometry>
                </mxCell>
                <mxCell id="292" style="edgeStyle=none;html=1;" parent="1" source="285" target="175" edge="1">
                    <mxGeometry relative="1" as="geometry"/>
                </mxCell>
                <mxCell id="591" value="&lt;span style=&quot;color: rgb(0, 0, 0);&quot;&gt;35 Mbps&lt;/span&gt;" style="edgeLabel;html=1;align=center;verticalAlign=middle;resizable=0;points=[];" parent="292" vertex="1" connectable="0">
                    <mxGeometry x="-0.0357" relative="1" as="geometry">
                        <mxPoint as="offset"/>
                    </mxGeometry>
                </mxCell>
                <mxCell id="285" value="" style="shape=mxgraph.cisco.switches.workgroup_switch;sketch=0;html=1;pointerEvents=1;dashed=0;fillColor=#036897;strokeColor=#ffffff;strokeWidth=2;verticalLabelPosition=bottom;verticalAlign=top;align=center;outlineConnect=0;" parent="1" vertex="1">
                    <mxGeometry x="8431" y="650" width="101" height="50" as="geometry"/>
                </mxCell>
                <mxCell id="293" style="edgeStyle=none;html=1;" parent="1" source="286" target="179" edge="1">
                    <mxGeometry relative="1" as="geometry"/>
                </mxCell>
                <mxCell id="603" value="&lt;span style=&quot;color: rgb(0, 0, 0);&quot;&gt;35 Mbps&lt;/span&gt;" style="edgeLabel;html=1;align=center;verticalAlign=middle;resizable=0;points=[];" parent="293" vertex="1" connectable="0">
                    <mxGeometry x="-0.0183" relative="1" as="geometry">
                        <mxPoint as="offset"/>
                    </mxGeometry>
                </mxCell>
                <mxCell id="294" style="edgeStyle=none;html=1;" parent="1" source="286" target="177" edge="1">
                    <mxGeometry relative="1" as="geometry"/>
                </mxCell>
                <mxCell id="605" value="&lt;span style=&quot;color: rgb(0, 0, 0);&quot;&gt;35 Mbps&lt;/span&gt;" style="edgeLabel;html=1;align=center;verticalAlign=middle;resizable=0;points=[];" parent="294" vertex="1" connectable="0">
                    <mxGeometry x="0.0154" y="1" relative="1" as="geometry">
                        <mxPoint as="offset"/>
                    </mxGeometry>
                </mxCell>
                <mxCell id="295" style="edgeStyle=none;html=1;" parent="1" source="286" target="178" edge="1">
                    <mxGeometry relative="1" as="geometry"/>
                </mxCell>
                <mxCell id="604" value="&lt;span style=&quot;color: rgb(0, 0, 0);&quot;&gt;35 Mbps&lt;/span&gt;" style="edgeLabel;html=1;align=center;verticalAlign=middle;resizable=0;points=[];" parent="295" vertex="1" connectable="0">
                    <mxGeometry x="-0.0119" y="1" relative="1" as="geometry">
                        <mxPoint as="offset"/>
                    </mxGeometry>
                </mxCell>
                <mxCell id="286" value="" style="shape=mxgraph.cisco.switches.workgroup_switch;sketch=0;html=1;pointerEvents=1;dashed=0;fillColor=#036897;strokeColor=#ffffff;strokeWidth=2;verticalLabelPosition=bottom;verticalAlign=top;align=center;outlineConnect=0;" parent="1" vertex="1">
                    <mxGeometry x="8791" y="650" width="101" height="50" as="geometry"/>
                </mxCell>
                <mxCell id="298" style="edgeStyle=none;html=1;" parent="1" source="296" target="180" edge="1">
                    <mxGeometry relative="1" as="geometry"/>
                </mxCell>
                <mxCell id="602" value="&lt;span style=&quot;color: rgb(0, 0, 0);&quot;&gt;35 Mbps&lt;/span&gt;" style="edgeLabel;html=1;align=center;verticalAlign=middle;resizable=0;points=[];" parent="298" vertex="1" connectable="0">
                    <mxGeometry x="-0.0241" relative="1" as="geometry">
                        <mxPoint as="offset"/>
                    </mxGeometry>
                </mxCell>
                <mxCell id="299" style="edgeStyle=none;html=1;" parent="1" source="296" target="182" edge="1">
                    <mxGeometry relative="1" as="geometry"/>
                </mxCell>
                <mxCell id="599" value="&lt;span style=&quot;color: rgb(0, 0, 0);&quot;&gt;35 Mbps&lt;/span&gt;" style="edgeLabel;html=1;align=center;verticalAlign=middle;resizable=0;points=[];" parent="299" vertex="1" connectable="0">
                    <mxGeometry x="-0.0183" relative="1" as="geometry">
                        <mxPoint as="offset"/>
                    </mxGeometry>
                </mxCell>
                <mxCell id="300" style="edgeStyle=none;html=1;" parent="1" source="296" target="181" edge="1">
                    <mxGeometry relative="1" as="geometry"/>
                </mxCell>
                <mxCell id="600" value="&lt;span style=&quot;color: rgb(0, 0, 0);&quot;&gt;35 Mbps&lt;/span&gt;" style="edgeLabel;html=1;align=center;verticalAlign=middle;resizable=0;points=[];" parent="300" vertex="1" connectable="0">
                    <mxGeometry x="-0.0119" relative="1" as="geometry">
                        <mxPoint as="offset"/>
                    </mxGeometry>
                </mxCell>
                <mxCell id="296" value="" style="shape=mxgraph.cisco.switches.workgroup_switch;sketch=0;html=1;pointerEvents=1;dashed=0;fillColor=#036897;strokeColor=#ffffff;strokeWidth=2;verticalLabelPosition=bottom;verticalAlign=top;align=center;outlineConnect=0;" parent="1" vertex="1">
                    <mxGeometry x="9151" y="650" width="101" height="50" as="geometry"/>
                </mxCell>
                <mxCell id="301" style="edgeStyle=none;html=1;" parent="1" source="297" target="183" edge="1">
                    <mxGeometry relative="1" as="geometry"/>
                </mxCell>
                <mxCell id="598" value="&lt;span style=&quot;color: rgb(0, 0, 0);&quot;&gt;35 Mbps&lt;/span&gt;" style="edgeLabel;html=1;align=center;verticalAlign=middle;resizable=0;points=[];" parent="301" vertex="1" connectable="0">
                    <mxGeometry x="-0.0357" relative="1" as="geometry">
                        <mxPoint as="offset"/>
                    </mxGeometry>
                </mxCell>
                <mxCell id="302" style="edgeStyle=none;html=1;" parent="1" source="297" target="195" edge="1">
                    <mxGeometry relative="1" as="geometry"/>
                </mxCell>
                <mxCell id="596" value="&lt;span style=&quot;color: rgb(0, 0, 0);&quot;&gt;35 Mbps&lt;/span&gt;" style="edgeLabel;html=1;align=center;verticalAlign=middle;resizable=0;points=[];" parent="302" vertex="1" connectable="0">
                    <mxGeometry x="-0.0322" y="-1" relative="1" as="geometry">
                        <mxPoint as="offset"/>
                    </mxGeometry>
                </mxCell>
                <mxCell id="303" style="edgeStyle=none;html=1;" parent="1" source="297" target="184" edge="1">
                    <mxGeometry relative="1" as="geometry"/>
                </mxCell>
                <mxCell id="597" value="&lt;span style=&quot;color: rgb(0, 0, 0);&quot;&gt;35 Mbps&lt;/span&gt;" style="edgeLabel;html=1;align=center;verticalAlign=middle;resizable=0;points=[];" parent="303" vertex="1" connectable="0">
                    <mxGeometry x="-0.0119" relative="1" as="geometry">
                        <mxPoint as="offset"/>
                    </mxGeometry>
                </mxCell>
                <mxCell id="297" value="" style="shape=mxgraph.cisco.switches.workgroup_switch;sketch=0;html=1;pointerEvents=1;dashed=0;fillColor=#036897;strokeColor=#ffffff;strokeWidth=2;verticalLabelPosition=bottom;verticalAlign=top;align=center;outlineConnect=0;" parent="1" vertex="1">
                    <mxGeometry x="9511" y="650" width="101" height="50" as="geometry"/>
                </mxCell>
                <mxCell id="305" style="edgeStyle=none;html=1;" parent="1" source="304" target="103" edge="1">
                    <mxGeometry relative="1" as="geometry"/>
                </mxCell>
                <mxCell id="493" value="&lt;span style=&quot;color: rgb(0, 0, 0);&quot;&gt;35 Mbps&lt;/span&gt;" style="edgeLabel;html=1;align=center;verticalAlign=middle;resizable=0;points=[];" parent="305" vertex="1" connectable="0">
                    <mxGeometry x="0.0003" relative="1" as="geometry">
                        <mxPoint as="offset"/>
                    </mxGeometry>
                </mxCell>
                <mxCell id="306" style="edgeStyle=none;html=1;" parent="1" source="304" target="114" edge="1">
                    <mxGeometry relative="1" as="geometry"/>
                </mxCell>
                <mxCell id="497" value="&lt;span style=&quot;color: rgb(0, 0, 0);&quot;&gt;35 Mbps&lt;/span&gt;" style="edgeLabel;html=1;align=center;verticalAlign=middle;resizable=0;points=[];" parent="306" vertex="1" connectable="0">
                    <mxGeometry x="-0.0038" relative="1" as="geometry">
                        <mxPoint as="offset"/>
                    </mxGeometry>
                </mxCell>
                <mxCell id="307" style="edgeStyle=none;html=1;" parent="1" source="304" target="202" edge="1">
                    <mxGeometry relative="1" as="geometry"/>
                </mxCell>
                <mxCell id="501" value="&lt;span style=&quot;color: rgb(0, 0, 0);&quot;&gt;35 Mbps&lt;/span&gt;" style="edgeLabel;html=1;align=center;verticalAlign=middle;resizable=0;points=[];" parent="307" vertex="1" connectable="0">
                    <mxGeometry x="-0.0013" y="-1" relative="1" as="geometry">
                        <mxPoint as="offset"/>
                    </mxGeometry>
                </mxCell>
                <mxCell id="304" value="" style="shape=mxgraph.cisco.switches.workgroup_switch;sketch=0;html=1;pointerEvents=1;dashed=0;fillColor=#036897;strokeColor=#ffffff;strokeWidth=2;verticalLabelPosition=bottom;verticalAlign=top;align=center;outlineConnect=0;" parent="1" vertex="1">
                    <mxGeometry x="511" y="560" width="101" height="50" as="geometry"/>
                </mxCell>
                <mxCell id="309" style="edgeStyle=none;html=1;" parent="1" source="308" target="206" edge="1">
                    <mxGeometry relative="1" as="geometry"/>
                </mxCell>
                <mxCell id="507" value="&lt;span style=&quot;color: rgb(0, 0, 0);&quot;&gt;35 Mbps&lt;/span&gt;" style="edgeLabel;html=1;align=center;verticalAlign=middle;resizable=0;points=[];" parent="309" vertex="1" connectable="0">
                    <mxGeometry x="0.0031" relative="1" as="geometry">
                        <mxPoint as="offset"/>
                    </mxGeometry>
                </mxCell>
                <mxCell id="310" style="edgeStyle=none;html=1;" parent="1" source="308" target="210" edge="1">
                    <mxGeometry relative="1" as="geometry"/>
                </mxCell>
                <mxCell id="509" value="&lt;span style=&quot;color: rgb(0, 0, 0);&quot;&gt;35 Mbps&lt;/span&gt;" style="edgeLabel;html=1;align=center;verticalAlign=middle;resizable=0;points=[];" parent="310" vertex="1" connectable="0">
                    <mxGeometry x="-0.0423" relative="1" as="geometry">
                        <mxPoint as="offset"/>
                    </mxGeometry>
                </mxCell>
                <mxCell id="311" style="edgeStyle=none;html=1;" parent="1" source="308" target="214" edge="1">
                    <mxGeometry relative="1" as="geometry"/>
                </mxCell>
                <mxCell id="512" value="&lt;span style=&quot;color: rgb(0, 0, 0);&quot;&gt;35 Mbps&lt;/span&gt;" style="edgeLabel;html=1;align=center;verticalAlign=middle;resizable=0;points=[];" parent="311" vertex="1" connectable="0">
                    <mxGeometry x="0.0015" y="-1" relative="1" as="geometry">
                        <mxPoint as="offset"/>
                    </mxGeometry>
                </mxCell>
                <mxCell id="308" value="" style="shape=mxgraph.cisco.switches.workgroup_switch;sketch=0;html=1;pointerEvents=1;dashed=0;fillColor=#036897;strokeColor=#ffffff;strokeWidth=2;verticalLabelPosition=bottom;verticalAlign=top;align=center;outlineConnect=0;" parent="1" vertex="1">
                    <mxGeometry x="1591" y="560" width="101" height="50" as="geometry"/>
                </mxCell>
                <mxCell id="313" style="edgeStyle=none;html=1;" parent="1" source="312" target="216" edge="1">
                    <mxGeometry relative="1" as="geometry"/>
                </mxCell>
                <mxCell id="525" value="&lt;span style=&quot;color: rgb(0, 0, 0);&quot;&gt;35 Mbps&lt;/span&gt;" style="edgeLabel;html=1;align=center;verticalAlign=middle;resizable=0;points=[];" parent="313" vertex="1" connectable="0">
                    <mxGeometry x="0.0154" y="-1" relative="1" as="geometry">
                        <mxPoint as="offset"/>
                    </mxGeometry>
                </mxCell>
                <mxCell id="314" style="edgeStyle=none;html=1;" parent="1" source="312" target="215" edge="1">
                    <mxGeometry relative="1" as="geometry"/>
                </mxCell>
                <mxCell id="520" value="&lt;span style=&quot;color: rgb(0, 0, 0);&quot;&gt;35 Mbps&lt;/span&gt;" style="edgeLabel;html=1;align=center;verticalAlign=middle;resizable=0;points=[];" parent="314" vertex="1" connectable="0">
                    <mxGeometry x="-0.0011" relative="1" as="geometry">
                        <mxPoint as="offset"/>
                    </mxGeometry>
                </mxCell>
                <mxCell id="315" style="edgeStyle=none;html=1;" parent="1" source="312" target="226" edge="1">
                    <mxGeometry relative="1" as="geometry"/>
                </mxCell>
                <mxCell id="521" value="&lt;span style=&quot;color: rgb(0, 0, 0);&quot;&gt;35 Mbps&lt;/span&gt;" style="edgeLabel;html=1;align=center;verticalAlign=middle;resizable=0;points=[];" parent="315" vertex="1" connectable="0">
                    <mxGeometry x="-0.0041" y="-1" relative="1" as="geometry">
                        <mxPoint as="offset"/>
                    </mxGeometry>
                </mxCell>
                <mxCell id="312" value="" style="shape=mxgraph.cisco.switches.workgroup_switch;sketch=0;html=1;pointerEvents=1;dashed=0;fillColor=#036897;strokeColor=#ffffff;strokeWidth=2;verticalLabelPosition=bottom;verticalAlign=top;align=center;outlineConnect=0;" parent="1" vertex="1">
                    <mxGeometry x="2671" y="560" width="101" height="50" as="geometry"/>
                </mxCell>
                <mxCell id="317" style="edgeStyle=none;html=1;" parent="1" source="316" target="228" edge="1">
                    <mxGeometry relative="1" as="geometry"/>
                </mxCell>
                <mxCell id="533" value="&lt;span style=&quot;color: rgb(0, 0, 0);&quot;&gt;35 Mbps&lt;/span&gt;" style="edgeLabel;html=1;align=center;verticalAlign=middle;resizable=0;points=[];" parent="317" vertex="1" connectable="0">
                    <mxGeometry x="-0.0048" relative="1" as="geometry">
                        <mxPoint as="offset"/>
                    </mxGeometry>
                </mxCell>
                <mxCell id="318" style="edgeStyle=none;html=1;" parent="1" source="316" target="227" edge="1">
                    <mxGeometry relative="1" as="geometry"/>
                </mxCell>
                <mxCell id="532" value="&lt;span style=&quot;color: rgb(0, 0, 0);&quot;&gt;35 Mbps&lt;/span&gt;" style="edgeLabel;html=1;align=center;verticalAlign=middle;resizable=0;points=[];" parent="318" vertex="1" connectable="0">
                    <mxGeometry x="-0.0051" relative="1" as="geometry">
                        <mxPoint as="offset"/>
                    </mxGeometry>
                </mxCell>
                <mxCell id="319" style="edgeStyle=none;html=1;" parent="1" source="316" target="238" edge="1">
                    <mxGeometry relative="1" as="geometry"/>
                </mxCell>
                <mxCell id="540" value="&lt;span style=&quot;color: rgb(0, 0, 0);&quot;&gt;35 Mbps&lt;/span&gt;" style="edgeLabel;html=1;align=center;verticalAlign=middle;resizable=0;points=[];" parent="319" vertex="1" connectable="0">
                    <mxGeometry x="0.003" relative="1" as="geometry">
                        <mxPoint as="offset"/>
                    </mxGeometry>
                </mxCell>
                <mxCell id="316" value="" style="shape=mxgraph.cisco.switches.workgroup_switch;sketch=0;html=1;pointerEvents=1;dashed=0;fillColor=#036897;strokeColor=#ffffff;strokeWidth=2;verticalLabelPosition=bottom;verticalAlign=top;align=center;outlineConnect=0;" parent="1" vertex="1">
                    <mxGeometry x="3751" y="560" width="101" height="50" as="geometry"/>
                </mxCell>
                <mxCell id="321" style="edgeStyle=none;html=1;" parent="1" source="320" target="240" edge="1">
                    <mxGeometry relative="1" as="geometry"/>
                </mxCell>
                <mxCell id="546" value="&lt;span style=&quot;color: rgb(0, 0, 0);&quot;&gt;35 Mbps&lt;/span&gt;" style="edgeLabel;html=1;align=center;verticalAlign=middle;resizable=0;points=[];" parent="321" vertex="1" connectable="0">
                    <mxGeometry x="0.0163" relative="1" as="geometry">
                        <mxPoint as="offset"/>
                    </mxGeometry>
                </mxCell>
                <mxCell id="322" style="edgeStyle=none;html=1;" parent="1" source="320" target="239" edge="1">
                    <mxGeometry relative="1" as="geometry"/>
                </mxCell>
                <mxCell id="542" value="&lt;span style=&quot;color: rgb(0, 0, 0);&quot;&gt;35 Mbps&lt;/span&gt;" style="edgeLabel;html=1;align=center;verticalAlign=middle;resizable=0;points=[];" parent="322" vertex="1" connectable="0">
                    <mxGeometry x="0.0057" relative="1" as="geometry">
                        <mxPoint as="offset"/>
                    </mxGeometry>
                </mxCell>
                <mxCell id="323" style="edgeStyle=none;html=1;" parent="1" source="320" target="251" edge="1">
                    <mxGeometry relative="1" as="geometry"/>
                </mxCell>
                <mxCell id="545" value="&lt;span style=&quot;color: rgb(0, 0, 0);&quot;&gt;35 Mbps&lt;/span&gt;" style="edgeLabel;html=1;align=center;verticalAlign=middle;resizable=0;points=[];" parent="323" vertex="1" connectable="0">
                    <mxGeometry x="0.0073" relative="1" as="geometry">
                        <mxPoint as="offset"/>
                    </mxGeometry>
                </mxCell>
                <mxCell id="320" value="" style="shape=mxgraph.cisco.switches.workgroup_switch;sketch=0;html=1;pointerEvents=1;dashed=0;fillColor=#036897;strokeColor=#ffffff;strokeWidth=2;verticalLabelPosition=bottom;verticalAlign=top;align=center;outlineConnect=0;" parent="1" vertex="1">
                    <mxGeometry x="4831" y="560" width="101" height="50" as="geometry"/>
                </mxCell>
                <mxCell id="325" style="edgeStyle=none;html=1;" parent="1" source="324" target="253" edge="1">
                    <mxGeometry relative="1" as="geometry"/>
                </mxCell>
                <mxCell id="555" value="&lt;span style=&quot;color: rgb(0, 0, 0);&quot;&gt;35 Mbps&lt;/span&gt;" style="edgeLabel;html=1;align=center;verticalAlign=middle;resizable=0;points=[];" parent="325" vertex="1" connectable="0">
                    <mxGeometry x="-0.0535" y="-1" relative="1" as="geometry">
                        <mxPoint as="offset"/>
                    </mxGeometry>
                </mxCell>
                <mxCell id="326" style="edgeStyle=none;html=1;" parent="1" source="324" target="252" edge="1">
                    <mxGeometry relative="1" as="geometry"/>
                </mxCell>
                <mxCell id="556" value="&lt;span style=&quot;color: rgb(0, 0, 0);&quot;&gt;35 Mbps&lt;/span&gt;" style="edgeLabel;html=1;align=center;verticalAlign=middle;resizable=0;points=[];" parent="326" vertex="1" connectable="0">
                    <mxGeometry x="0.0032" relative="1" as="geometry">
                        <mxPoint as="offset"/>
                    </mxGeometry>
                </mxCell>
                <mxCell id="327" style="edgeStyle=none;html=1;" parent="1" source="324" target="263" edge="1">
                    <mxGeometry relative="1" as="geometry"/>
                </mxCell>
                <mxCell id="562" value="&lt;span style=&quot;color: rgb(0, 0, 0);&quot;&gt;35 Mbps&lt;/span&gt;" style="edgeLabel;html=1;align=center;verticalAlign=middle;resizable=0;points=[];" parent="327" vertex="1" connectable="0">
                    <mxGeometry x="-0.0105" relative="1" as="geometry">
                        <mxPoint as="offset"/>
                    </mxGeometry>
                </mxCell>
                <mxCell id="324" value="" style="shape=mxgraph.cisco.switches.workgroup_switch;sketch=0;html=1;pointerEvents=1;dashed=0;fillColor=#036897;strokeColor=#ffffff;strokeWidth=2;verticalLabelPosition=bottom;verticalAlign=top;align=center;outlineConnect=0;" parent="1" vertex="1">
                    <mxGeometry x="5911" y="560" width="101" height="50" as="geometry"/>
                </mxCell>
                <mxCell id="329" style="edgeStyle=none;html=1;" parent="1" source="328" target="265" edge="1">
                    <mxGeometry relative="1" as="geometry"/>
                </mxCell>
                <mxCell id="572" value="&lt;span style=&quot;color: rgb(0, 0, 0);&quot;&gt;35 Mbps&lt;/span&gt;" style="edgeLabel;html=1;align=center;verticalAlign=middle;resizable=0;points=[];" parent="329" vertex="1" connectable="0">
                    <mxGeometry x="-0.0595" relative="1" as="geometry">
                        <mxPoint as="offset"/>
                    </mxGeometry>
                </mxCell>
                <mxCell id="330" style="edgeStyle=none;html=1;" parent="1" source="328" target="264" edge="1">
                    <mxGeometry relative="1" as="geometry"/>
                </mxCell>
                <mxCell id="567" value="&lt;span style=&quot;color: rgb(0, 0, 0);&quot;&gt;35 Mbps&lt;/span&gt;" style="edgeLabel;html=1;align=center;verticalAlign=middle;resizable=0;points=[];" parent="330" vertex="1" connectable="0">
                    <mxGeometry x="0.0074" relative="1" as="geometry">
                        <mxPoint as="offset"/>
                    </mxGeometry>
                </mxCell>
                <mxCell id="332" style="edgeStyle=none;html=1;" parent="1" source="328" target="276" edge="1">
                    <mxGeometry relative="1" as="geometry"/>
                </mxCell>
                <mxCell id="575" value="&lt;span style=&quot;color: rgb(0, 0, 0);&quot;&gt;35 Mbps&lt;/span&gt;" style="edgeLabel;html=1;align=center;verticalAlign=middle;resizable=0;points=[];" parent="332" vertex="1" connectable="0">
                    <mxGeometry x="-0.0074" relative="1" as="geometry">
                        <mxPoint y="1" as="offset"/>
                    </mxGeometry>
                </mxCell>
                <mxCell id="328" value="" style="shape=mxgraph.cisco.switches.workgroup_switch;sketch=0;html=1;pointerEvents=1;dashed=0;fillColor=#036897;strokeColor=#ffffff;strokeWidth=2;verticalLabelPosition=bottom;verticalAlign=top;align=center;outlineConnect=0;" parent="1" vertex="1">
                    <mxGeometry x="6991" y="560" width="101" height="50" as="geometry"/>
                </mxCell>
                <mxCell id="334" style="edgeStyle=none;html=1;" parent="1" source="333" target="277" edge="1">
                    <mxGeometry relative="1" as="geometry"/>
                </mxCell>
                <mxCell id="584" value="&lt;span style=&quot;color: rgb(0, 0, 0);&quot;&gt;35 Mbps&lt;/span&gt;" style="edgeLabel;html=1;align=center;verticalAlign=middle;resizable=0;points=[];" parent="334" vertex="1" connectable="0">
                    <mxGeometry x="0.0013" relative="1" as="geometry">
                        <mxPoint as="offset"/>
                    </mxGeometry>
                </mxCell>
                <mxCell id="335" style="edgeStyle=none;html=1;" parent="1" source="333" target="285" edge="1">
                    <mxGeometry relative="1" as="geometry"/>
                </mxCell>
                <mxCell id="586" value="&lt;span style=&quot;color: rgb(0, 0, 0);&quot;&gt;35 Mbps&lt;/span&gt;" style="edgeLabel;html=1;align=center;verticalAlign=middle;resizable=0;points=[];" parent="335" vertex="1" connectable="0">
                    <mxGeometry x="0.0013" y="-1" relative="1" as="geometry">
                        <mxPoint as="offset"/>
                    </mxGeometry>
                </mxCell>
                <mxCell id="336" style="edgeStyle=none;html=1;" parent="1" source="333" target="284" edge="1">
                    <mxGeometry relative="1" as="geometry"/>
                </mxCell>
                <mxCell id="585" value="&lt;span style=&quot;color: rgb(0, 0, 0);&quot;&gt;35 Mbps&lt;/span&gt;" style="edgeLabel;html=1;align=center;verticalAlign=middle;resizable=0;points=[];" parent="336" vertex="1" connectable="0">
                    <mxGeometry x="0.0119" relative="1" as="geometry">
                        <mxPoint as="offset"/>
                    </mxGeometry>
                </mxCell>
                <mxCell id="333" value="" style="shape=mxgraph.cisco.switches.workgroup_switch;sketch=0;html=1;pointerEvents=1;dashed=0;fillColor=#036897;strokeColor=#ffffff;strokeWidth=2;verticalLabelPosition=bottom;verticalAlign=top;align=center;outlineConnect=0;" parent="1" vertex="1">
                    <mxGeometry x="8071" y="560" width="101" height="50" as="geometry"/>
                </mxCell>
                <mxCell id="338" style="edgeStyle=none;html=1;" parent="1" source="337" target="286" edge="1">
                    <mxGeometry relative="1" as="geometry"/>
                </mxCell>
                <mxCell id="594" value="&lt;span style=&quot;color: rgb(0, 0, 0);&quot;&gt;35 Mbps&lt;/span&gt;" style="edgeLabel;html=1;align=center;verticalAlign=middle;resizable=0;points=[];" parent="338" vertex="1" connectable="0">
                    <mxGeometry x="0.0039" relative="1" as="geometry">
                        <mxPoint as="offset"/>
                    </mxGeometry>
                </mxCell>
                <mxCell id="339" style="edgeStyle=none;html=1;" parent="1" source="337" target="297" edge="1">
                    <mxGeometry relative="1" as="geometry"/>
                </mxCell>
                <mxCell id="595" value="&lt;span style=&quot;color: rgb(0, 0, 0);&quot;&gt;35 Mbps&lt;/span&gt;" style="edgeLabel;html=1;align=center;verticalAlign=middle;resizable=0;points=[];" parent="339" vertex="1" connectable="0">
                    <mxGeometry x="0.0091" y="1" relative="1" as="geometry">
                        <mxPoint as="offset"/>
                    </mxGeometry>
                </mxCell>
                <mxCell id="340" style="edgeStyle=none;html=1;" parent="1" source="337" target="296" edge="1">
                    <mxGeometry relative="1" as="geometry"/>
                </mxCell>
                <mxCell id="601" value="&lt;span style=&quot;color: rgb(0, 0, 0);&quot;&gt;35 Mbps&lt;/span&gt;" style="edgeLabel;html=1;align=center;verticalAlign=middle;resizable=0;points=[];" parent="340" vertex="1" connectable="0">
                    <mxGeometry x="-0.0119" y="-1" relative="1" as="geometry">
                        <mxPoint as="offset"/>
                    </mxGeometry>
                </mxCell>
                <mxCell id="337" value="" style="shape=mxgraph.cisco.switches.workgroup_switch;sketch=0;html=1;pointerEvents=1;dashed=0;fillColor=#036897;strokeColor=#ffffff;strokeWidth=2;verticalLabelPosition=bottom;verticalAlign=top;align=center;outlineConnect=0;" parent="1" vertex="1">
                    <mxGeometry x="9151" y="560" width="101" height="50" as="geometry"/>
                </mxCell>
                <mxCell id="342" style="edgeStyle=none;html=1;" parent="1" source="341" target="308" edge="1">
                    <mxGeometry relative="1" as="geometry"/>
                </mxCell>
                <mxCell id="343" style="edgeStyle=none;html=1;" parent="1" source="341" target="304" edge="1">
                    <mxGeometry relative="1" as="geometry"/>
                </mxCell>
                <mxCell id="492" value="&lt;span style=&quot;color: rgb(0, 0, 0);&quot;&gt;35 Mbps&lt;/span&gt;" style="edgeLabel;html=1;align=center;verticalAlign=middle;resizable=0;points=[];" parent="343" vertex="1" connectable="0">
                    <mxGeometry x="0.0008" y="-1" relative="1" as="geometry">
                        <mxPoint as="offset"/>
                    </mxGeometry>
                </mxCell>
                <mxCell id="344" style="edgeStyle=none;html=1;" parent="1" source="341" target="312" edge="1">
                    <mxGeometry relative="1" as="geometry"/>
                </mxCell>
                <mxCell id="514" value="&lt;span style=&quot;color: rgb(0, 0, 0);&quot;&gt;35 Mbps&lt;/span&gt;" style="edgeLabel;html=1;align=center;verticalAlign=middle;resizable=0;points=[];" parent="344" vertex="1" connectable="0">
                    <mxGeometry x="-0.0007" relative="1" as="geometry">
                        <mxPoint as="offset"/>
                    </mxGeometry>
                </mxCell>
                <mxCell id="341" value="" style="shape=mxgraph.cisco.switches.workgroup_switch;sketch=0;html=1;pointerEvents=1;dashed=0;fillColor=#036897;strokeColor=#ffffff;strokeWidth=2;verticalLabelPosition=bottom;verticalAlign=top;align=center;outlineConnect=0;" parent="1" vertex="1">
                    <mxGeometry x="1591" y="470" width="101" height="50" as="geometry"/>
                </mxCell>
                <mxCell id="346" style="edgeStyle=none;html=1;" parent="1" source="345" target="316" edge="1">
                    <mxGeometry relative="1" as="geometry"/>
                </mxCell>
                <mxCell id="541" value="&lt;span style=&quot;color: rgb(0, 0, 0);&quot;&gt;35 Mbps&lt;/span&gt;" style="edgeLabel;html=1;align=center;verticalAlign=middle;resizable=0;points=[];" parent="346" vertex="1" connectable="0">
                    <mxGeometry x="0.0041" y="-1" relative="1" as="geometry">
                        <mxPoint as="offset"/>
                    </mxGeometry>
                </mxCell>
                <mxCell id="347" style="edgeStyle=none;html=1;" parent="1" source="345" target="320" edge="1">
                    <mxGeometry relative="1" as="geometry"/>
                </mxCell>
                <mxCell id="544" value="&lt;span style=&quot;color: rgb(0, 0, 0);&quot;&gt;35 Mbps&lt;/span&gt;" style="edgeLabel;html=1;align=center;verticalAlign=middle;resizable=0;points=[];" parent="347" vertex="1" connectable="0">
                    <mxGeometry x="-0.0186" y="1" relative="1" as="geometry">
                        <mxPoint as="offset"/>
                    </mxGeometry>
                </mxCell>
                <mxCell id="348" style="edgeStyle=none;html=1;" parent="1" source="345" target="324" edge="1">
                    <mxGeometry relative="1" as="geometry"/>
                </mxCell>
                <mxCell id="554" value="&lt;span style=&quot;color: rgb(0, 0, 0);&quot;&gt;35 Mbps&lt;/span&gt;" style="edgeLabel;html=1;align=center;verticalAlign=middle;resizable=0;points=[];" parent="348" vertex="1" connectable="0">
                    <mxGeometry x="-0.0007" relative="1" as="geometry">
                        <mxPoint as="offset"/>
                    </mxGeometry>
                </mxCell>
                <mxCell id="345" value="" style="shape=mxgraph.cisco.switches.workgroup_switch;sketch=0;html=1;pointerEvents=1;dashed=0;fillColor=#036897;strokeColor=#ffffff;strokeWidth=2;verticalLabelPosition=bottom;verticalAlign=top;align=center;outlineConnect=0;" parent="1" vertex="1">
                    <mxGeometry x="4831" y="470" width="101" height="50" as="geometry"/>
                </mxCell>
                <mxCell id="350" style="edgeStyle=none;html=1;" parent="1" source="349" target="333" edge="1">
                    <mxGeometry relative="1" as="geometry"/>
                </mxCell>
                <mxCell id="583" value="&lt;span style=&quot;color: rgb(0, 0, 0);&quot;&gt;35 Mbps&lt;/span&gt;" style="edgeLabel;html=1;align=center;verticalAlign=middle;resizable=0;points=[];" parent="350" vertex="1" connectable="0">
                    <mxGeometry x="-0.0119" y="-1" relative="1" as="geometry">
                        <mxPoint as="offset"/>
                    </mxGeometry>
                </mxCell>
                <mxCell id="351" style="edgeStyle=none;html=1;" parent="1" source="349" target="337" edge="1">
                    <mxGeometry relative="1" as="geometry"/>
                </mxCell>
                <mxCell id="593" value="&lt;span style=&quot;color: rgb(0, 0, 0);&quot;&gt;35 Mbps&lt;/span&gt;" style="edgeLabel;html=1;align=center;verticalAlign=middle;resizable=0;points=[];" parent="351" vertex="1" connectable="0">
                    <mxGeometry x="0.0005" y="1" relative="1" as="geometry">
                        <mxPoint as="offset"/>
                    </mxGeometry>
                </mxCell>
                <mxCell id="352" style="edgeStyle=none;html=1;" parent="1" source="349" target="328" edge="1">
                    <mxGeometry relative="1" as="geometry"/>
                </mxCell>
                <mxCell id="579" value="&lt;span style=&quot;color: rgb(0, 0, 0);&quot;&gt;35 Mbps&lt;/span&gt;" style="edgeLabel;html=1;align=center;verticalAlign=middle;resizable=0;points=[];" parent="352" vertex="1" connectable="0">
                    <mxGeometry x="0.0001" y="-1" relative="1" as="geometry">
                        <mxPoint as="offset"/>
                    </mxGeometry>
                </mxCell>
                <mxCell id="349" value="" style="shape=mxgraph.cisco.switches.workgroup_switch;sketch=0;html=1;pointerEvents=1;dashed=0;fillColor=#036897;strokeColor=#ffffff;strokeWidth=2;verticalLabelPosition=bottom;verticalAlign=top;align=center;outlineConnect=0;" parent="1" vertex="1">
                    <mxGeometry x="8071" y="470" width="101" height="50" as="geometry"/>
                </mxCell>
                <mxCell id="354" style="edgeStyle=none;html=1;" parent="1" source="353" target="345" edge="1">
                    <mxGeometry relative="1" as="geometry"/>
                </mxCell>
                <mxCell id="543" value="&lt;span style=&quot;color: rgb(0, 0, 0);&quot;&gt;35 Mbps&lt;/span&gt;" style="edgeLabel;html=1;align=center;verticalAlign=middle;resizable=0;points=[];" parent="354" vertex="1" connectable="0">
                    <mxGeometry x="-0.007" y="-1" relative="1" as="geometry">
                        <mxPoint as="offset"/>
                    </mxGeometry>
                </mxCell>
                <mxCell id="353" value="" style="shape=mxgraph.cisco.switches.workgroup_switch;sketch=0;html=1;pointerEvents=1;dashed=0;fillColor=#036897;strokeColor=#ffffff;strokeWidth=2;verticalLabelPosition=bottom;verticalAlign=top;align=center;outlineConnect=0;" parent="1" vertex="1">
                    <mxGeometry x="4831" y="380" width="101" height="50" as="geometry"/>
                </mxCell>
                <mxCell id="355" style="edgeStyle=none;html=1;entryX=0.5;entryY=0;entryDx=0;entryDy=0;entryPerimeter=0;" parent="1" source="353" target="341" edge="1">
                    <mxGeometry relative="1" as="geometry"/>
                </mxCell>
                <mxCell id="485" value="35 Mbps" style="edgeLabel;html=1;align=center;verticalAlign=middle;resizable=0;points=[];" parent="355" vertex="1" connectable="0">
                    <mxGeometry x="-0.0007" relative="1" as="geometry">
                        <mxPoint x="13" as="offset"/>
                    </mxGeometry>
                </mxCell>
                <mxCell id="356" style="edgeStyle=none;html=1;entryX=0.5;entryY=0;entryDx=0;entryDy=0;entryPerimeter=0;" parent="1" source="353" target="349" edge="1">
                    <mxGeometry relative="1" as="geometry"/>
                </mxCell>
                <mxCell id="566" value="&lt;span style=&quot;color: rgb(0, 0, 0);&quot;&gt;35 Mbps&lt;/span&gt;" style="edgeLabel;html=1;align=center;verticalAlign=middle;resizable=0;points=[];" parent="356" vertex="1" connectable="0">
                    <mxGeometry relative="1" as="geometry">
                        <mxPoint as="offset"/>
                    </mxGeometry>
                </mxCell>
                <mxCell id="357" value="s1" style="text;html=1;align=center;verticalAlign=middle;resizable=0;points=[];autosize=1;strokeColor=none;fillColor=none;" parent="1" vertex="1">
                    <mxGeometry x="4800" y="368" width="40" height="30" as="geometry"/>
                </mxCell>
                <mxCell id="358" value="s2" style="text;html=1;align=center;verticalAlign=middle;resizable=0;points=[];autosize=1;strokeColor=none;fillColor=none;" parent="1" vertex="1">
                    <mxGeometry x="1560" y="458" width="40" height="30" as="geometry"/>
                </mxCell>
                <mxCell id="359" value="s3" style="text;html=1;align=center;verticalAlign=middle;resizable=0;points=[];autosize=1;strokeColor=none;fillColor=none;" parent="1" vertex="1">
                    <mxGeometry x="490" y="548" width="40" height="30" as="geometry"/>
                </mxCell>
                <mxCell id="360" value="s4" style="text;html=1;align=center;verticalAlign=middle;resizable=0;points=[];autosize=1;strokeColor=none;fillColor=none;" parent="1" vertex="1">
                    <mxGeometry x="130" y="648" width="40" height="30" as="geometry"/>
                </mxCell>
                <mxCell id="361" value="s5" style="text;html=1;align=center;verticalAlign=middle;resizable=0;points=[];autosize=1;strokeColor=none;fillColor=none;" parent="1" vertex="1">
                    <mxGeometry x="490" y="638" width="40" height="30" as="geometry"/>
                </mxCell>
                <mxCell id="362" value="s6" style="text;html=1;align=center;verticalAlign=middle;resizable=0;points=[];autosize=1;strokeColor=none;fillColor=none;" parent="1" vertex="1">
                    <mxGeometry x="850" y="638" width="40" height="30" as="geometry"/>
                </mxCell>
                <mxCell id="363" value="s7" style="text;html=1;align=center;verticalAlign=middle;resizable=0;points=[];autosize=1;strokeColor=none;fillColor=none;" parent="1" vertex="1">
                    <mxGeometry x="1560" y="548" width="40" height="30" as="geometry"/>
                </mxCell>
                <mxCell id="364" value="s8" style="text;html=1;align=center;verticalAlign=middle;resizable=0;points=[];autosize=1;strokeColor=none;fillColor=none;" parent="1" vertex="1">
                    <mxGeometry x="1200" y="638" width="40" height="30" as="geometry"/>
                </mxCell>
                <mxCell id="365" value="s9" style="text;html=1;align=center;verticalAlign=middle;resizable=0;points=[];autosize=1;strokeColor=none;fillColor=none;" parent="1" vertex="1">
                    <mxGeometry x="1570" y="638" width="40" height="30" as="geometry"/>
                </mxCell>
                <mxCell id="366" value="s10" style="text;html=1;align=center;verticalAlign=middle;resizable=0;points=[];autosize=1;strokeColor=none;fillColor=none;" parent="1" vertex="1">
                    <mxGeometry x="1930" y="638" width="40" height="30" as="geometry"/>
                </mxCell>
                <mxCell id="367" value="s11" style="text;html=1;align=center;verticalAlign=middle;resizable=0;points=[];autosize=1;strokeColor=none;fillColor=none;" parent="1" vertex="1">
                    <mxGeometry x="2640" y="548" width="40" height="30" as="geometry"/>
                </mxCell>
                <mxCell id="368" value="s12" style="text;html=1;align=center;verticalAlign=middle;resizable=0;points=[];autosize=1;strokeColor=none;fillColor=none;" parent="1" vertex="1">
                    <mxGeometry x="2280" y="638" width="40" height="30" as="geometry"/>
                </mxCell>
                <mxCell id="369" value="s13" style="text;html=1;align=center;verticalAlign=middle;resizable=0;points=[];autosize=1;strokeColor=none;fillColor=none;" parent="1" vertex="1">
                    <mxGeometry x="2650" y="638" width="40" height="30" as="geometry"/>
                </mxCell>
                <mxCell id="370" value="s14" style="text;html=1;align=center;verticalAlign=middle;resizable=0;points=[];autosize=1;strokeColor=none;fillColor=none;" parent="1" vertex="1">
                    <mxGeometry x="3010" y="638" width="40" height="30" as="geometry"/>
                </mxCell>
                <mxCell id="371" value="s15" style="text;html=1;align=center;verticalAlign=middle;resizable=0;points=[];autosize=1;strokeColor=none;fillColor=none;" parent="1" vertex="1">
                    <mxGeometry x="4800" y="458" width="40" height="30" as="geometry"/>
                </mxCell>
                <mxCell id="372" value="s16" style="text;html=1;align=center;verticalAlign=middle;resizable=0;points=[];autosize=1;strokeColor=none;fillColor=none;" parent="1" vertex="1">
                    <mxGeometry x="3720" y="548" width="40" height="30" as="geometry"/>
                </mxCell>
                <mxCell id="373" value="s17" style="text;html=1;align=center;verticalAlign=middle;resizable=0;points=[];autosize=1;strokeColor=none;fillColor=none;" parent="1" vertex="1">
                    <mxGeometry x="3370" y="638" width="40" height="30" as="geometry"/>
                </mxCell>
                <mxCell id="374" value="s18" style="text;html=1;align=center;verticalAlign=middle;resizable=0;points=[];autosize=1;strokeColor=none;fillColor=none;" parent="1" vertex="1">
                    <mxGeometry x="3720" y="638" width="40" height="30" as="geometry"/>
                </mxCell>
                <mxCell id="375" value="s19" style="text;html=1;align=center;verticalAlign=middle;resizable=0;points=[];autosize=1;strokeColor=none;fillColor=none;" parent="1" vertex="1">
                    <mxGeometry x="4080" y="638" width="40" height="30" as="geometry"/>
                </mxCell>
                <mxCell id="376" value="s20" style="text;html=1;align=center;verticalAlign=middle;resizable=0;points=[];autosize=1;strokeColor=none;fillColor=none;" parent="1" vertex="1">
                    <mxGeometry x="4800" y="548" width="40" height="30" as="geometry"/>
                </mxCell>
                <mxCell id="377" value="s21" style="text;html=1;align=center;verticalAlign=middle;resizable=0;points=[];autosize=1;strokeColor=none;fillColor=none;" parent="1" vertex="1">
                    <mxGeometry x="4450" y="638" width="40" height="30" as="geometry"/>
                </mxCell>
                <mxCell id="378" value="s22" style="text;html=1;align=center;verticalAlign=middle;resizable=0;points=[];autosize=1;strokeColor=none;fillColor=none;" parent="1" vertex="1">
                    <mxGeometry x="4800" y="638" width="40" height="30" as="geometry"/>
                </mxCell>
                <mxCell id="379" value="s23" style="text;html=1;align=center;verticalAlign=middle;resizable=0;points=[];autosize=1;strokeColor=none;fillColor=none;" parent="1" vertex="1">
                    <mxGeometry x="5170" y="638" width="40" height="30" as="geometry"/>
                </mxCell>
                <mxCell id="381" value="s24" style="text;html=1;align=center;verticalAlign=middle;resizable=0;points=[];autosize=1;strokeColor=none;fillColor=none;" parent="1" vertex="1">
                    <mxGeometry x="5890" y="548" width="40" height="30" as="geometry"/>
                </mxCell>
                <mxCell id="382" value="s25" style="text;html=1;align=center;verticalAlign=middle;resizable=0;points=[];autosize=1;strokeColor=none;fillColor=none;" parent="1" vertex="1">
                    <mxGeometry x="5520" y="638" width="40" height="30" as="geometry"/>
                </mxCell>
                <mxCell id="383" value="s26" style="text;html=1;align=center;verticalAlign=middle;resizable=0;points=[];autosize=1;strokeColor=none;fillColor=none;" parent="1" vertex="1">
                    <mxGeometry x="5890" y="638" width="40" height="30" as="geometry"/>
                </mxCell>
                <mxCell id="384" value="s27" style="text;html=1;align=center;verticalAlign=middle;resizable=0;points=[];autosize=1;strokeColor=none;fillColor=none;" parent="1" vertex="1">
                    <mxGeometry x="6240" y="638" width="40" height="30" as="geometry"/>
                </mxCell>
                <mxCell id="385" value="s28" style="text;html=1;align=center;verticalAlign=middle;resizable=0;points=[];autosize=1;strokeColor=none;fillColor=none;" parent="1" vertex="1">
                    <mxGeometry x="8050" y="458" width="40" height="30" as="geometry"/>
                </mxCell>
                <mxCell id="387" value="s29" style="text;html=1;align=center;verticalAlign=middle;resizable=0;points=[];autosize=1;strokeColor=none;fillColor=none;" parent="1" vertex="1">
                    <mxGeometry x="6970" y="548" width="40" height="30" as="geometry"/>
                </mxCell>
                <mxCell id="388" value="s30" style="text;html=1;align=center;verticalAlign=middle;resizable=0;points=[];autosize=1;strokeColor=none;fillColor=none;" parent="1" vertex="1">
                    <mxGeometry x="6600" y="638" width="40" height="30" as="geometry"/>
                </mxCell>
                <mxCell id="389" value="s31" style="text;html=1;align=center;verticalAlign=middle;resizable=0;points=[];autosize=1;strokeColor=none;fillColor=none;" parent="1" vertex="1">
                    <mxGeometry x="6970" y="638" width="40" height="30" as="geometry"/>
                </mxCell>
                <mxCell id="391" value="s32" style="text;html=1;align=center;verticalAlign=middle;resizable=0;points=[];autosize=1;strokeColor=none;fillColor=none;" parent="1" vertex="1">
                    <mxGeometry x="7330" y="638" width="40" height="30" as="geometry"/>
                </mxCell>
                <mxCell id="392" value="s33" style="text;html=1;align=center;verticalAlign=middle;resizable=0;points=[];autosize=1;strokeColor=none;fillColor=none;" parent="1" vertex="1">
                    <mxGeometry x="8040" y="548" width="40" height="30" as="geometry"/>
                </mxCell>
                <mxCell id="393" value="s34" style="text;html=1;align=center;verticalAlign=middle;resizable=0;points=[];autosize=1;strokeColor=none;fillColor=none;" parent="1" vertex="1">
                    <mxGeometry x="7680" y="638" width="40" height="30" as="geometry"/>
                </mxCell>
                <mxCell id="394" value="s35" style="text;html=1;align=center;verticalAlign=middle;resizable=0;points=[];autosize=1;strokeColor=none;fillColor=none;" parent="1" vertex="1">
                    <mxGeometry x="8050" y="638" width="40" height="30" as="geometry"/>
                </mxCell>
                <mxCell id="395" value="s36" style="text;html=1;align=center;verticalAlign=middle;resizable=0;points=[];autosize=1;strokeColor=none;fillColor=none;" parent="1" vertex="1">
                    <mxGeometry x="8410" y="638" width="40" height="30" as="geometry"/>
                </mxCell>
                <mxCell id="396" value="s37" style="text;html=1;align=center;verticalAlign=middle;resizable=0;points=[];autosize=1;strokeColor=none;fillColor=none;" parent="1" vertex="1">
                    <mxGeometry x="9130" y="548" width="40" height="30" as="geometry"/>
                </mxCell>
                <mxCell id="397" value="s38" style="text;html=1;align=center;verticalAlign=middle;resizable=0;points=[];autosize=1;strokeColor=none;fillColor=none;" parent="1" vertex="1">
                    <mxGeometry x="8760" y="638" width="40" height="30" as="geometry"/>
                </mxCell>
                <mxCell id="398" value="s39" style="text;html=1;align=center;verticalAlign=middle;resizable=0;points=[];autosize=1;strokeColor=none;fillColor=none;" parent="1" vertex="1">
                    <mxGeometry x="9130" y="638" width="40" height="30" as="geometry"/>
                </mxCell>
                <mxCell id="399" value="s40" style="text;html=1;align=center;verticalAlign=middle;resizable=0;points=[];autosize=1;strokeColor=none;fillColor=none;" parent="1" vertex="1">
                    <mxGeometry x="9490" y="638" width="40" height="30" as="geometry"/>
                </mxCell>
                <mxCell id="400" value="h1" style="text;html=1;align=center;verticalAlign=middle;resizable=0;points=[];autosize=1;strokeColor=none;fillColor=none;" parent="1" vertex="1">
                    <mxGeometry x="20" y="728" width="40" height="30" as="geometry"/>
                </mxCell>
                <mxCell id="401" value="h2" style="text;html=1;align=center;verticalAlign=middle;resizable=0;points=[];autosize=1;strokeColor=none;fillColor=none;" parent="1" vertex="1">
                    <mxGeometry x="140" y="728" width="40" height="30" as="geometry"/>
                </mxCell>
                <mxCell id="402" value="h3" style="text;html=1;align=center;verticalAlign=middle;resizable=0;points=[];autosize=1;strokeColor=none;fillColor=none;" parent="1" vertex="1">
                    <mxGeometry x="260" y="728" width="40" height="30" as="geometry"/>
                </mxCell>
                <mxCell id="403" value="h4" style="text;html=1;align=center;verticalAlign=middle;resizable=0;points=[];autosize=1;strokeColor=none;fillColor=none;" parent="1" vertex="1">
                    <mxGeometry x="380" y="728" width="40" height="30" as="geometry"/>
                </mxCell>
                <mxCell id="404" value="h5" style="text;html=1;align=center;verticalAlign=middle;resizable=0;points=[];autosize=1;strokeColor=none;fillColor=none;" parent="1" vertex="1">
                    <mxGeometry x="500" y="728" width="40" height="30" as="geometry"/>
                </mxCell>
                <mxCell id="405" value="h6" style="text;html=1;align=center;verticalAlign=middle;resizable=0;points=[];autosize=1;strokeColor=none;fillColor=none;" parent="1" vertex="1">
                    <mxGeometry x="620" y="728" width="40" height="30" as="geometry"/>
                </mxCell>
                <mxCell id="406" value="h7" style="text;html=1;align=center;verticalAlign=middle;resizable=0;points=[];autosize=1;strokeColor=none;fillColor=none;" parent="1" vertex="1">
                    <mxGeometry x="740" y="728" width="40" height="30" as="geometry"/>
                </mxCell>
                <mxCell id="407" value="h8" style="text;html=1;align=center;verticalAlign=middle;resizable=0;points=[];autosize=1;strokeColor=none;fillColor=none;" parent="1" vertex="1">
                    <mxGeometry x="860" y="728" width="40" height="30" as="geometry"/>
                </mxCell>
                <mxCell id="408" value="h9" style="text;html=1;align=center;verticalAlign=middle;resizable=0;points=[];autosize=1;strokeColor=none;fillColor=none;" parent="1" vertex="1">
                    <mxGeometry x="980" y="728" width="40" height="30" as="geometry"/>
                </mxCell>
                <mxCell id="409" value="h10" style="text;html=1;align=center;verticalAlign=middle;resizable=0;points=[];autosize=1;strokeColor=none;fillColor=none;" parent="1" vertex="1">
                    <mxGeometry x="1100" y="728" width="40" height="30" as="geometry"/>
                </mxCell>
                <mxCell id="410" value="h11" style="text;html=1;align=center;verticalAlign=middle;resizable=0;points=[];autosize=1;strokeColor=none;fillColor=none;" parent="1" vertex="1">
                    <mxGeometry x="1220" y="728" width="40" height="30" as="geometry"/>
                </mxCell>
                <mxCell id="411" value="h12" style="text;html=1;align=center;verticalAlign=middle;resizable=0;points=[];autosize=1;strokeColor=none;fillColor=none;" parent="1" vertex="1">
                    <mxGeometry x="1340" y="728" width="40" height="30" as="geometry"/>
                </mxCell>
                <mxCell id="412" value="h13" style="text;html=1;align=center;verticalAlign=middle;resizable=0;points=[];autosize=1;strokeColor=none;fillColor=none;" parent="1" vertex="1">
                    <mxGeometry x="1460" y="728" width="40" height="30" as="geometry"/>
                </mxCell>
                <mxCell id="413" value="h14" style="text;html=1;align=center;verticalAlign=middle;resizable=0;points=[];autosize=1;strokeColor=none;fillColor=none;" parent="1" vertex="1">
                    <mxGeometry x="1580" y="728" width="40" height="30" as="geometry"/>
                </mxCell>
                <mxCell id="414" value="h15" style="text;html=1;align=center;verticalAlign=middle;resizable=0;points=[];autosize=1;strokeColor=none;fillColor=none;" parent="1" vertex="1">
                    <mxGeometry x="1700" y="728" width="40" height="30" as="geometry"/>
                </mxCell>
                <mxCell id="415" value="h16" style="text;html=1;align=center;verticalAlign=middle;resizable=0;points=[];autosize=1;strokeColor=none;fillColor=none;" parent="1" vertex="1">
                    <mxGeometry x="1820" y="728" width="40" height="30" as="geometry"/>
                </mxCell>
                <mxCell id="416" value="h17" style="text;html=1;align=center;verticalAlign=middle;resizable=0;points=[];autosize=1;strokeColor=none;fillColor=none;" parent="1" vertex="1">
                    <mxGeometry x="1940" y="728" width="40" height="30" as="geometry"/>
                </mxCell>
                <mxCell id="417" value="h18" style="text;html=1;align=center;verticalAlign=middle;resizable=0;points=[];autosize=1;strokeColor=none;fillColor=none;" parent="1" vertex="1">
                    <mxGeometry x="2060" y="728" width="40" height="30" as="geometry"/>
                </mxCell>
                <mxCell id="418" value="h19" style="text;html=1;align=center;verticalAlign=middle;resizable=0;points=[];autosize=1;strokeColor=none;fillColor=none;" parent="1" vertex="1">
                    <mxGeometry x="2180" y="728" width="40" height="30" as="geometry"/>
                </mxCell>
                <mxCell id="419" value="h20" style="text;html=1;align=center;verticalAlign=middle;resizable=0;points=[];autosize=1;strokeColor=none;fillColor=none;" parent="1" vertex="1">
                    <mxGeometry x="2300" y="728" width="40" height="30" as="geometry"/>
                </mxCell>
                <mxCell id="420" value="h21" style="text;html=1;align=center;verticalAlign=middle;resizable=0;points=[];autosize=1;strokeColor=none;fillColor=none;" parent="1" vertex="1">
                    <mxGeometry x="2420" y="728" width="40" height="30" as="geometry"/>
                </mxCell>
                <mxCell id="421" value="h22" style="text;html=1;align=center;verticalAlign=middle;resizable=0;points=[];autosize=1;strokeColor=none;fillColor=none;" parent="1" vertex="1">
                    <mxGeometry x="2540" y="728" width="40" height="30" as="geometry"/>
                </mxCell>
                <mxCell id="422" value="h23" style="text;html=1;align=center;verticalAlign=middle;resizable=0;points=[];autosize=1;strokeColor=none;fillColor=none;" parent="1" vertex="1">
                    <mxGeometry x="2660" y="728" width="40" height="30" as="geometry"/>
                </mxCell>
                <mxCell id="423" value="h24" style="text;html=1;align=center;verticalAlign=middle;resizable=0;points=[];autosize=1;strokeColor=none;fillColor=none;" parent="1" vertex="1">
                    <mxGeometry x="2780" y="728" width="40" height="30" as="geometry"/>
                </mxCell>
                <mxCell id="424" value="h25" style="text;html=1;align=center;verticalAlign=middle;resizable=0;points=[];autosize=1;strokeColor=none;fillColor=none;" parent="1" vertex="1">
                    <mxGeometry x="2900" y="728" width="40" height="30" as="geometry"/>
                </mxCell>
                <mxCell id="425" value="h26" style="text;html=1;align=center;verticalAlign=middle;resizable=0;points=[];autosize=1;strokeColor=none;fillColor=none;" parent="1" vertex="1">
                    <mxGeometry x="3020" y="728" width="40" height="30" as="geometry"/>
                </mxCell>
                <mxCell id="426" value="h27" style="text;html=1;align=center;verticalAlign=middle;resizable=0;points=[];autosize=1;strokeColor=none;fillColor=none;" parent="1" vertex="1">
                    <mxGeometry x="3140" y="728" width="40" height="30" as="geometry"/>
                </mxCell>
                <mxCell id="427" value="h28" style="text;html=1;align=center;verticalAlign=middle;resizable=0;points=[];autosize=1;strokeColor=none;fillColor=none;" parent="1" vertex="1">
                    <mxGeometry x="3260" y="728" width="40" height="30" as="geometry"/>
                </mxCell>
                <mxCell id="428" value="h29" style="text;html=1;align=center;verticalAlign=middle;resizable=0;points=[];autosize=1;strokeColor=none;fillColor=none;" parent="1" vertex="1">
                    <mxGeometry x="3380" y="728" width="40" height="30" as="geometry"/>
                </mxCell>
                <mxCell id="429" value="h30" style="text;html=1;align=center;verticalAlign=middle;resizable=0;points=[];autosize=1;strokeColor=none;fillColor=none;" parent="1" vertex="1">
                    <mxGeometry x="3500" y="728" width="40" height="30" as="geometry"/>
                </mxCell>
                <mxCell id="430" value="h31" style="text;html=1;align=center;verticalAlign=middle;resizable=0;points=[];autosize=1;strokeColor=none;fillColor=none;" parent="1" vertex="1">
                    <mxGeometry x="3610" y="728" width="40" height="30" as="geometry"/>
                </mxCell>
                <mxCell id="431" value="h32" style="text;html=1;align=center;verticalAlign=middle;resizable=0;points=[];autosize=1;strokeColor=none;fillColor=none;" parent="1" vertex="1">
                    <mxGeometry x="3740" y="728" width="40" height="30" as="geometry"/>
                </mxCell>
                <mxCell id="432" value="h33" style="text;html=1;align=center;verticalAlign=middle;resizable=0;points=[];autosize=1;strokeColor=none;fillColor=none;" parent="1" vertex="1">
                    <mxGeometry x="3860" y="728" width="40" height="30" as="geometry"/>
                </mxCell>
                <mxCell id="435" value="h34" style="text;html=1;align=center;verticalAlign=middle;resizable=0;points=[];autosize=1;strokeColor=none;fillColor=none;" parent="1" vertex="1">
                    <mxGeometry x="3980" y="728" width="40" height="30" as="geometry"/>
                </mxCell>
                <mxCell id="436" value="h35" style="text;html=1;align=center;verticalAlign=middle;resizable=0;points=[];autosize=1;strokeColor=none;fillColor=none;" parent="1" vertex="1">
                    <mxGeometry x="4100" y="728" width="40" height="30" as="geometry"/>
                </mxCell>
                <mxCell id="437" value="h36" style="text;html=1;align=center;verticalAlign=middle;resizable=0;points=[];autosize=1;strokeColor=none;fillColor=none;" parent="1" vertex="1">
                    <mxGeometry x="4220" y="728" width="40" height="30" as="geometry"/>
                </mxCell>
                <mxCell id="438" value="h37" style="text;html=1;align=center;verticalAlign=middle;resizable=0;points=[];autosize=1;strokeColor=none;fillColor=none;" parent="1" vertex="1">
                    <mxGeometry x="4340" y="728" width="40" height="30" as="geometry"/>
                </mxCell>
                <mxCell id="439" value="h38" style="text;html=1;align=center;verticalAlign=middle;resizable=0;points=[];autosize=1;strokeColor=none;fillColor=none;" parent="1" vertex="1">
                    <mxGeometry x="4460" y="728" width="40" height="30" as="geometry"/>
                </mxCell>
                <mxCell id="440" value="h39" style="text;html=1;align=center;verticalAlign=middle;resizable=0;points=[];autosize=1;strokeColor=none;fillColor=none;" parent="1" vertex="1">
                    <mxGeometry x="4580" y="728" width="40" height="30" as="geometry"/>
                </mxCell>
                <mxCell id="441" value="h40" style="text;html=1;align=center;verticalAlign=middle;resizable=0;points=[];autosize=1;strokeColor=none;fillColor=none;" parent="1" vertex="1">
                    <mxGeometry x="4700" y="728" width="40" height="30" as="geometry"/>
                </mxCell>
                <mxCell id="442" value="h41" style="text;html=1;align=center;verticalAlign=middle;resizable=0;points=[];autosize=1;strokeColor=none;fillColor=none;" parent="1" vertex="1">
                    <mxGeometry x="4820" y="728" width="40" height="30" as="geometry"/>
                </mxCell>
                <mxCell id="443" value="h42" style="text;html=1;align=center;verticalAlign=middle;resizable=0;points=[];autosize=1;strokeColor=none;fillColor=none;" parent="1" vertex="1">
                    <mxGeometry x="4940" y="728" width="40" height="30" as="geometry"/>
                </mxCell>
                <mxCell id="444" value="h43" style="text;html=1;align=center;verticalAlign=middle;resizable=0;points=[];autosize=1;strokeColor=none;fillColor=none;" parent="1" vertex="1">
                    <mxGeometry x="5060" y="728" width="40" height="30" as="geometry"/>
                </mxCell>
                <mxCell id="445" value="h44" style="text;html=1;align=center;verticalAlign=middle;resizable=0;points=[];autosize=1;strokeColor=none;fillColor=none;" parent="1" vertex="1">
                    <mxGeometry x="5180" y="728" width="40" height="30" as="geometry"/>
                </mxCell>
                <mxCell id="446" value="h45" style="text;html=1;align=center;verticalAlign=middle;resizable=0;points=[];autosize=1;strokeColor=none;fillColor=none;" parent="1" vertex="1">
                    <mxGeometry x="5300" y="728" width="40" height="30" as="geometry"/>
                </mxCell>
                <mxCell id="447" value="h46" style="text;html=1;align=center;verticalAlign=middle;resizable=0;points=[];autosize=1;strokeColor=none;fillColor=none;" parent="1" vertex="1">
                    <mxGeometry x="5420" y="728" width="40" height="30" as="geometry"/>
                </mxCell>
                <mxCell id="448" value="h47" style="text;html=1;align=center;verticalAlign=middle;resizable=0;points=[];autosize=1;strokeColor=none;fillColor=none;" parent="1" vertex="1">
                    <mxGeometry x="5540" y="728" width="40" height="30" as="geometry"/>
                </mxCell>
                <mxCell id="449" value="h48" style="text;html=1;align=center;verticalAlign=middle;resizable=0;points=[];autosize=1;strokeColor=none;fillColor=none;" parent="1" vertex="1">
                    <mxGeometry x="5660" y="728" width="40" height="30" as="geometry"/>
                </mxCell>
                <mxCell id="450" value="h49" style="text;html=1;align=center;verticalAlign=middle;resizable=0;points=[];autosize=1;strokeColor=none;fillColor=none;" parent="1" vertex="1">
                    <mxGeometry x="5780" y="728" width="40" height="30" as="geometry"/>
                </mxCell>
                <mxCell id="451" value="h50" style="text;html=1;align=center;verticalAlign=middle;resizable=0;points=[];autosize=1;strokeColor=none;fillColor=none;" parent="1" vertex="1">
                    <mxGeometry x="5900" y="728" width="40" height="30" as="geometry"/>
                </mxCell>
                <mxCell id="452" value="h51" style="text;html=1;align=center;verticalAlign=middle;resizable=0;points=[];autosize=1;strokeColor=none;fillColor=none;" parent="1" vertex="1">
                    <mxGeometry x="6020" y="728" width="40" height="30" as="geometry"/>
                </mxCell>
                <mxCell id="453" value="h52" style="text;html=1;align=center;verticalAlign=middle;resizable=0;points=[];autosize=1;strokeColor=none;fillColor=none;" parent="1" vertex="1">
                    <mxGeometry x="6140" y="728" width="40" height="30" as="geometry"/>
                </mxCell>
                <mxCell id="454" value="h53" style="text;html=1;align=center;verticalAlign=middle;resizable=0;points=[];autosize=1;strokeColor=none;fillColor=none;" parent="1" vertex="1">
                    <mxGeometry x="6260" y="728" width="40" height="30" as="geometry"/>
                </mxCell>
                <mxCell id="455" value="h54" style="text;html=1;align=center;verticalAlign=middle;resizable=0;points=[];autosize=1;strokeColor=none;fillColor=none;" parent="1" vertex="1">
                    <mxGeometry x="6380" y="728" width="40" height="30" as="geometry"/>
                </mxCell>
                <mxCell id="456" value="h55" style="text;html=1;align=center;verticalAlign=middle;resizable=0;points=[];autosize=1;strokeColor=none;fillColor=none;" parent="1" vertex="1">
                    <mxGeometry x="6500" y="728" width="40" height="30" as="geometry"/>
                </mxCell>
                <mxCell id="457" value="h56" style="text;html=1;align=center;verticalAlign=middle;resizable=0;points=[];autosize=1;strokeColor=none;fillColor=none;" parent="1" vertex="1">
                    <mxGeometry x="6620" y="728" width="40" height="30" as="geometry"/>
                </mxCell>
                <mxCell id="458" value="h57" style="text;html=1;align=center;verticalAlign=middle;resizable=0;points=[];autosize=1;strokeColor=none;fillColor=none;" parent="1" vertex="1">
                    <mxGeometry x="6730" y="728" width="40" height="30" as="geometry"/>
                </mxCell>
                <mxCell id="459" value="h58" style="text;html=1;align=center;verticalAlign=middle;resizable=0;points=[];autosize=1;strokeColor=none;fillColor=none;" parent="1" vertex="1">
                    <mxGeometry x="6860" y="728" width="40" height="30" as="geometry"/>
                </mxCell>
                <mxCell id="460" value="h59" style="text;html=1;align=center;verticalAlign=middle;resizable=0;points=[];autosize=1;strokeColor=none;fillColor=none;" parent="1" vertex="1">
                    <mxGeometry x="6980" y="728" width="40" height="30" as="geometry"/>
                </mxCell>
                <mxCell id="461" value="h60" style="text;html=1;align=center;verticalAlign=middle;resizable=0;points=[];autosize=1;strokeColor=none;fillColor=none;" parent="1" vertex="1">
                    <mxGeometry x="7100" y="728" width="40" height="30" as="geometry"/>
                </mxCell>
                <mxCell id="462" value="h61" style="text;html=1;align=center;verticalAlign=middle;resizable=0;points=[];autosize=1;strokeColor=none;fillColor=none;" parent="1" vertex="1">
                    <mxGeometry x="7220" y="728" width="40" height="30" as="geometry"/>
                </mxCell>
                <mxCell id="463" value="h62" style="text;html=1;align=center;verticalAlign=middle;resizable=0;points=[];autosize=1;strokeColor=none;fillColor=none;" parent="1" vertex="1">
                    <mxGeometry x="7340" y="728" width="40" height="30" as="geometry"/>
                </mxCell>
                <mxCell id="464" value="h63" style="text;html=1;align=center;verticalAlign=middle;resizable=0;points=[];autosize=1;strokeColor=none;fillColor=none;" parent="1" vertex="1">
                    <mxGeometry x="7460" y="728" width="40" height="30" as="geometry"/>
                </mxCell>
                <mxCell id="465" value="h64" style="text;html=1;align=center;verticalAlign=middle;resizable=0;points=[];autosize=1;strokeColor=none;fillColor=none;" parent="1" vertex="1">
                    <mxGeometry x="7580" y="728" width="40" height="30" as="geometry"/>
                </mxCell>
                <mxCell id="466" value="h65" style="text;html=1;align=center;verticalAlign=middle;resizable=0;points=[];autosize=1;strokeColor=none;fillColor=none;" parent="1" vertex="1">
                    <mxGeometry x="7700" y="728" width="40" height="30" as="geometry"/>
                </mxCell>
                <mxCell id="467" value="h66" style="text;html=1;align=center;verticalAlign=middle;resizable=0;points=[];autosize=1;strokeColor=none;fillColor=none;" parent="1" vertex="1">
                    <mxGeometry x="7820" y="728" width="40" height="30" as="geometry"/>
                </mxCell>
                <mxCell id="468" value="h67" style="text;html=1;align=center;verticalAlign=middle;resizable=0;points=[];autosize=1;strokeColor=none;fillColor=none;" parent="1" vertex="1">
                    <mxGeometry x="7940" y="728" width="40" height="30" as="geometry"/>
                </mxCell>
                <mxCell id="469" value="h68" style="text;html=1;align=center;verticalAlign=middle;resizable=0;points=[];autosize=1;strokeColor=none;fillColor=none;" parent="1" vertex="1">
                    <mxGeometry x="8060" y="728" width="40" height="30" as="geometry"/>
                </mxCell>
                <mxCell id="470" value="h69" style="text;html=1;align=center;verticalAlign=middle;resizable=0;points=[];autosize=1;strokeColor=none;fillColor=none;" parent="1" vertex="1">
                    <mxGeometry x="8170" y="728" width="40" height="30" as="geometry"/>
                </mxCell>
                <mxCell id="471" value="h70" style="text;html=1;align=center;verticalAlign=middle;resizable=0;points=[];autosize=1;strokeColor=none;fillColor=none;" parent="1" vertex="1">
                    <mxGeometry x="8300" y="728" width="40" height="30" as="geometry"/>
                </mxCell>
                <mxCell id="472" value="h71" style="text;html=1;align=center;verticalAlign=middle;resizable=0;points=[];autosize=1;strokeColor=none;fillColor=none;" parent="1" vertex="1">
                    <mxGeometry x="8420" y="728" width="40" height="30" as="geometry"/>
                </mxCell>
                <mxCell id="473" value="h72" style="text;html=1;align=center;verticalAlign=middle;resizable=0;points=[];autosize=1;strokeColor=none;fillColor=none;" parent="1" vertex="1">
                    <mxGeometry x="8540" y="728" width="40" height="30" as="geometry"/>
                </mxCell>
                <mxCell id="474" value="h73" style="text;html=1;align=center;verticalAlign=middle;resizable=0;points=[];autosize=1;strokeColor=none;fillColor=none;" parent="1" vertex="1">
                    <mxGeometry x="8660" y="728" width="40" height="30" as="geometry"/>
                </mxCell>
                <mxCell id="475" value="h74" style="text;html=1;align=center;verticalAlign=middle;resizable=0;points=[];autosize=1;strokeColor=none;fillColor=none;" parent="1" vertex="1">
                    <mxGeometry x="8780" y="728" width="40" height="30" as="geometry"/>
                </mxCell>
                <mxCell id="476" value="h75" style="text;html=1;align=center;verticalAlign=middle;resizable=0;points=[];autosize=1;strokeColor=none;fillColor=none;" parent="1" vertex="1">
                    <mxGeometry x="8900" y="728" width="40" height="30" as="geometry"/>
                </mxCell>
                <mxCell id="477" value="h76" style="text;html=1;align=center;verticalAlign=middle;resizable=0;points=[];autosize=1;strokeColor=none;fillColor=none;" parent="1" vertex="1">
                    <mxGeometry x="9020" y="728" width="40" height="30" as="geometry"/>
                </mxCell>
                <mxCell id="478" value="h77" style="text;html=1;align=center;verticalAlign=middle;resizable=0;points=[];autosize=1;strokeColor=none;fillColor=none;" parent="1" vertex="1">
                    <mxGeometry x="9140" y="728" width="40" height="30" as="geometry"/>
                </mxCell>
                <mxCell id="479" value="h78" style="text;html=1;align=center;verticalAlign=middle;resizable=0;points=[];autosize=1;strokeColor=none;fillColor=none;" parent="1" vertex="1">
                    <mxGeometry x="9260" y="728" width="40" height="30" as="geometry"/>
                </mxCell>
                <mxCell id="480" value="h79" style="text;html=1;align=center;verticalAlign=middle;resizable=0;points=[];autosize=1;strokeColor=none;fillColor=none;" parent="1" vertex="1">
                    <mxGeometry x="9380" y="728" width="40" height="30" as="geometry"/>
                </mxCell>
                <mxCell id="481" value="h80" style="text;html=1;align=center;verticalAlign=middle;resizable=0;points=[];autosize=1;strokeColor=none;fillColor=none;" parent="1" vertex="1">
                    <mxGeometry x="9500" y="728" width="40" height="30" as="geometry"/>
                </mxCell>
                <mxCell id="482" value="h81" style="text;html=1;align=center;verticalAlign=middle;resizable=0;points=[];autosize=1;strokeColor=none;fillColor=none;" parent="1" vertex="1">
                    <mxGeometry x="9620" y="728" width="40" height="30" as="geometry"/>
                </mxCell>
                <mxCell id="607" value="10.0.0.1&lt;div&gt;00:00:00:00:00:01&lt;/div&gt;" style="text;html=1;align=center;verticalAlign=middle;resizable=0;points=[];autosize=1;strokeColor=none;fillColor=none;" parent="1" vertex="1">
                    <mxGeometry x="20" y="805" width="120" height="40" as="geometry"/>
                </mxCell>
                <mxCell id="608" value="10.0.0.2&lt;div&gt;00:00:00:00:00:02&lt;/div&gt;" style="text;html=1;align=center;verticalAlign=middle;resizable=0;points=[];autosize=1;strokeColor=none;fillColor=none;" parent="1" vertex="1">
                    <mxGeometry x="140" y="805" width="120" height="40" as="geometry"/>
                </mxCell>
                <mxCell id="609" value="10.0.0.3&lt;div&gt;00:00:00:00:00:03&lt;/div&gt;" style="text;html=1;align=center;verticalAlign=middle;resizable=0;points=[];autosize=1;strokeColor=none;fillColor=none;" parent="1" vertex="1">
                    <mxGeometry x="260" y="805" width="120" height="40" as="geometry"/>
                </mxCell>
                <mxCell id="610" value="10.0.0.4&lt;div&gt;00:00:00:00:00:04&lt;/div&gt;" style="text;html=1;align=center;verticalAlign=middle;resizable=0;points=[];autosize=1;strokeColor=none;fillColor=none;" parent="1" vertex="1">
                    <mxGeometry x="380" y="802" width="120" height="40" as="geometry"/>
                </mxCell>
                <mxCell id="611" value="10.0.0.5&lt;div&gt;00:00:00:00:00:05&lt;/div&gt;" style="text;html=1;align=center;verticalAlign=middle;resizable=0;points=[];autosize=1;strokeColor=none;fillColor=none;" parent="1" vertex="1">
                    <mxGeometry x="500" y="800" width="120" height="40" as="geometry"/>
                </mxCell>
                <mxCell id="612" value="10.0.0.6&lt;div&gt;00:00:00:00:00:06&lt;/div&gt;" style="text;html=1;align=center;verticalAlign=middle;resizable=0;points=[];autosize=1;strokeColor=none;fillColor=none;" parent="1" vertex="1">
                    <mxGeometry x="620" y="800" width="120" height="40" as="geometry"/>
                </mxCell>
                <mxCell id="613" value="10.0.0.7&lt;div&gt;00:00:00:00:00:07&lt;/div&gt;" style="text;html=1;align=center;verticalAlign=middle;resizable=0;points=[];autosize=1;strokeColor=none;fillColor=none;" parent="1" vertex="1">
                    <mxGeometry x="740" y="800" width="120" height="40" as="geometry"/>
                </mxCell>
                <mxCell id="614" value="10.0.0.8&lt;div&gt;00:00:00:00:00:08&lt;/div&gt;" style="text;html=1;align=center;verticalAlign=middle;resizable=0;points=[];autosize=1;strokeColor=none;fillColor=none;" parent="1" vertex="1">
                    <mxGeometry x="860" y="800" width="120" height="40" as="geometry"/>
                </mxCell>
                <mxCell id="615" value="10.0.0.9&lt;div&gt;00:00:00:00:00:09&lt;/div&gt;" style="text;html=1;align=center;verticalAlign=middle;resizable=0;points=[];autosize=1;strokeColor=none;fillColor=none;" parent="1" vertex="1">
                    <mxGeometry x="980" y="800" width="120" height="40" as="geometry"/>
                </mxCell>
                <mxCell id="616" value="10.0.0.10&lt;div&gt;00:00:00:00:00:0A&lt;/div&gt;" style="text;html=1;align=center;verticalAlign=middle;resizable=0;points=[];autosize=1;strokeColor=none;fillColor=none;" parent="1" vertex="1">
                    <mxGeometry x="1095" y="800" width="120" height="40" as="geometry"/>
                </mxCell>
                <mxCell id="617" value="10.0.0.11&lt;div&gt;00:00:00:00:00:0B&lt;/div&gt;" style="text;html=1;align=center;verticalAlign=middle;resizable=0;points=[];autosize=1;strokeColor=none;fillColor=none;" parent="1" vertex="1">
                    <mxGeometry x="1215" y="800" width="120" height="40" as="geometry"/>
                </mxCell>
                <mxCell id="618" value="10.0.0.12&lt;div&gt;00:00:00:00:00:0C&lt;/div&gt;" style="text;html=1;align=center;verticalAlign=middle;resizable=0;points=[];autosize=1;strokeColor=none;fillColor=none;" parent="1" vertex="1">
                    <mxGeometry x="1340" y="800" width="120" height="40" as="geometry"/>
                </mxCell>
                <mxCell id="619" value="10.0.0.13&lt;div&gt;00:00:00:00:00:0D&lt;/div&gt;" style="text;html=1;align=center;verticalAlign=middle;resizable=0;points=[];autosize=1;strokeColor=none;fillColor=none;" parent="1" vertex="1">
                    <mxGeometry x="1460" y="800" width="120" height="40" as="geometry"/>
                </mxCell>
                <mxCell id="620" value="10.0.0.14&lt;div&gt;00:00:00:00:00:0E&lt;/div&gt;" style="text;html=1;align=center;verticalAlign=middle;resizable=0;points=[];autosize=1;strokeColor=none;fillColor=none;" parent="1" vertex="1">
                    <mxGeometry x="1580" y="800" width="120" height="40" as="geometry"/>
                </mxCell>
                <mxCell id="621" value="10.0.0.15&lt;div&gt;00:00:00:00:00:0F&lt;/div&gt;" style="text;html=1;align=center;verticalAlign=middle;resizable=0;points=[];autosize=1;strokeColor=none;fillColor=none;" parent="1" vertex="1">
                    <mxGeometry x="1700" y="800" width="120" height="40" as="geometry"/>
                </mxCell>
                <mxCell id="622" value="10.0.0.16&lt;div&gt;00:00:00:00:00:10&lt;/div&gt;" style="text;html=1;align=center;verticalAlign=middle;resizable=0;points=[];autosize=1;strokeColor=none;fillColor=none;" parent="1" vertex="1">
                    <mxGeometry x="1820" y="800" width="120" height="40" as="geometry"/>
                </mxCell>
                <mxCell id="623" value="10.0.0.17&lt;div&gt;00:00:00:00:00:11&lt;/div&gt;" style="text;html=1;align=center;verticalAlign=middle;resizable=0;points=[];autosize=1;strokeColor=none;fillColor=none;" parent="1" vertex="1">
                    <mxGeometry x="1940" y="800" width="120" height="40" as="geometry"/>
                </mxCell>
                <mxCell id="624" value="10.0.0.18&lt;div&gt;00:00:00:00:00:12&lt;/div&gt;" style="text;html=1;align=center;verticalAlign=middle;resizable=0;points=[];autosize=1;strokeColor=none;fillColor=none;" parent="1" vertex="1">
                    <mxGeometry x="2060" y="800" width="120" height="40" as="geometry"/>
                </mxCell>
                <mxCell id="625" value="10.0.0.19&lt;div&gt;00:00:00:00:00:13&lt;/div&gt;" style="text;html=1;align=center;verticalAlign=middle;resizable=0;points=[];autosize=1;strokeColor=none;fillColor=none;" parent="1" vertex="1">
                    <mxGeometry x="2180" y="800" width="120" height="40" as="geometry"/>
                </mxCell>
                <mxCell id="626" value="10.0.0.20&lt;div&gt;00:00:00:00:00:14&lt;/div&gt;" style="text;html=1;align=center;verticalAlign=middle;resizable=0;points=[];autosize=1;strokeColor=none;fillColor=none;" parent="1" vertex="1">
                    <mxGeometry x="2300" y="800" width="120" height="40" as="geometry"/>
                </mxCell>
                <mxCell id="627" value="10.0.0.21&lt;div&gt;00:00:00:00:00:15&lt;/div&gt;" style="text;html=1;align=center;verticalAlign=middle;resizable=0;points=[];autosize=1;strokeColor=none;fillColor=none;" parent="1" vertex="1">
                    <mxGeometry x="2420" y="800" width="120" height="40" as="geometry"/>
                </mxCell>
                <mxCell id="628" value="10.0.0.22&lt;div&gt;00:00:00:00:00:16&lt;/div&gt;" style="text;html=1;align=center;verticalAlign=middle;resizable=0;points=[];autosize=1;strokeColor=none;fillColor=none;" parent="1" vertex="1">
                    <mxGeometry x="2540" y="800" width="120" height="40" as="geometry"/>
                </mxCell>
                <mxCell id="629" value="10.0.0.23&lt;div&gt;00:00:00:00:00:17&lt;/div&gt;" style="text;html=1;align=center;verticalAlign=middle;resizable=0;points=[];autosize=1;strokeColor=none;fillColor=none;" parent="1" vertex="1">
                    <mxGeometry x="2660" y="800" width="120" height="40" as="geometry"/>
                </mxCell>
                <mxCell id="630" value="10.0.0.24&lt;div&gt;00:00:00:00:00:18&lt;/div&gt;" style="text;html=1;align=center;verticalAlign=middle;resizable=0;points=[];autosize=1;strokeColor=none;fillColor=none;" parent="1" vertex="1">
                    <mxGeometry x="2780" y="800" width="120" height="40" as="geometry"/>
                </mxCell>
                <mxCell id="631" value="10.0.0.25&lt;div&gt;00:00:00:00:00:19&lt;/div&gt;" style="text;html=1;align=center;verticalAlign=middle;resizable=0;points=[];autosize=1;strokeColor=none;fillColor=none;" parent="1" vertex="1">
                    <mxGeometry x="2900" y="800" width="120" height="40" as="geometry"/>
                </mxCell>
                <mxCell id="632" value="10.0.0.26&lt;div&gt;00:00:00:00:00:1A&lt;/div&gt;" style="text;html=1;align=center;verticalAlign=middle;resizable=0;points=[];autosize=1;strokeColor=none;fillColor=none;" parent="1" vertex="1">
                    <mxGeometry x="3020" y="800" width="120" height="40" as="geometry"/>
                </mxCell>
                <mxCell id="633" value="10.0.0.28&lt;div&gt;00:00:00:00:00:1C&lt;/div&gt;" style="text;html=1;align=center;verticalAlign=middle;resizable=0;points=[];autosize=1;strokeColor=none;fillColor=none;" parent="1" vertex="1">
                    <mxGeometry x="3260" y="800" width="120" height="40" as="geometry"/>
                </mxCell>
                <mxCell id="634" value="10.0.0.27&lt;div&gt;00:00:00:00:00:1B&lt;/div&gt;" style="text;html=1;align=center;verticalAlign=middle;resizable=0;points=[];autosize=1;strokeColor=none;fillColor=none;" parent="1" vertex="1">
                    <mxGeometry x="3140" y="800" width="120" height="40" as="geometry"/>
                </mxCell>
                <mxCell id="635" value="10.0.0.29&lt;div&gt;00:00:00:00:00:1D&lt;/div&gt;" style="text;html=1;align=center;verticalAlign=middle;resizable=0;points=[];autosize=1;strokeColor=none;fillColor=none;" parent="1" vertex="1">
                    <mxGeometry x="3380" y="800" width="120" height="40" as="geometry"/>
                </mxCell>
                <mxCell id="636" value="10.0.0.30&lt;div&gt;00:00:00:00:00:1E&lt;/div&gt;" style="text;html=1;align=center;verticalAlign=middle;resizable=0;points=[];autosize=1;strokeColor=none;fillColor=none;" parent="1" vertex="1">
                    <mxGeometry x="3500" y="800" width="120" height="40" as="geometry"/>
                </mxCell>
                <mxCell id="637" value="10.0.0.31&lt;div&gt;00:00:00:00:00:1F&lt;/div&gt;" style="text;html=1;align=center;verticalAlign=middle;resizable=0;points=[];autosize=1;strokeColor=none;fillColor=none;" parent="1" vertex="1">
                    <mxGeometry x="3620" y="800" width="120" height="40" as="geometry"/>
                </mxCell>
                <mxCell id="638" value="10.0.0.32&lt;div&gt;00:00:00:00:00:20&lt;/div&gt;" style="text;html=1;align=center;verticalAlign=middle;resizable=0;points=[];autosize=1;strokeColor=none;fillColor=none;" parent="1" vertex="1">
                    <mxGeometry x="3740" y="800" width="120" height="40" as="geometry"/>
                </mxCell>
                <mxCell id="639" value="10.0.0.33&lt;div&gt;00:00:00:00:00:21&lt;/div&gt;" style="text;html=1;align=center;verticalAlign=middle;resizable=0;points=[];autosize=1;strokeColor=none;fillColor=none;" parent="1" vertex="1">
                    <mxGeometry x="3860" y="800" width="120" height="40" as="geometry"/>
                </mxCell>
                <mxCell id="640" value="10.0.0.34&lt;div&gt;00:00:00:00:00:22&lt;/div&gt;" style="text;html=1;align=center;verticalAlign=middle;resizable=0;points=[];autosize=1;strokeColor=none;fillColor=none;" parent="1" vertex="1">
                    <mxGeometry x="3980" y="800" width="120" height="40" as="geometry"/>
                </mxCell>
                <mxCell id="641" value="10.0.0.35&lt;div&gt;00:00:00:00:00:23&lt;/div&gt;" style="text;html=1;align=center;verticalAlign=middle;resizable=0;points=[];autosize=1;strokeColor=none;fillColor=none;" parent="1" vertex="1">
                    <mxGeometry x="4100" y="800" width="120" height="40" as="geometry"/>
                </mxCell>
                <mxCell id="642" value="10.0.0.36&lt;div&gt;00:00:00:00:00:24&lt;/div&gt;" style="text;html=1;align=center;verticalAlign=middle;resizable=0;points=[];autosize=1;strokeColor=none;fillColor=none;" parent="1" vertex="1">
                    <mxGeometry x="4220" y="800" width="120" height="40" as="geometry"/>
                </mxCell>
                <mxCell id="643" value="10.0.0.37&lt;div&gt;00:00:00:00:00:25&lt;/div&gt;" style="text;html=1;align=center;verticalAlign=middle;resizable=0;points=[];autosize=1;strokeColor=none;fillColor=none;" parent="1" vertex="1">
                    <mxGeometry x="4340" y="800" width="120" height="40" as="geometry"/>
                </mxCell>
                <mxCell id="644" value="10.0.0.38&lt;div&gt;00:00:00:00:00:26&lt;/div&gt;" style="text;html=1;align=center;verticalAlign=middle;resizable=0;points=[];autosize=1;strokeColor=none;fillColor=none;" parent="1" vertex="1">
                    <mxGeometry x="4460" y="800" width="120" height="40" as="geometry"/>
                </mxCell>
                <mxCell id="645" value="10.0.0.39&lt;div&gt;00:00:00:00:00:27&lt;/div&gt;" style="text;html=1;align=center;verticalAlign=middle;resizable=0;points=[];autosize=1;strokeColor=none;fillColor=none;" parent="1" vertex="1">
                    <mxGeometry x="4580" y="800" width="120" height="40" as="geometry"/>
                </mxCell>
                <mxCell id="646" value="10.0.0.40&lt;div&gt;00:00:00:00:00:28&lt;/div&gt;" style="text;html=1;align=center;verticalAlign=middle;resizable=0;points=[];autosize=1;strokeColor=none;fillColor=none;" parent="1" vertex="1">
                    <mxGeometry x="4700" y="800" width="120" height="40" as="geometry"/>
                </mxCell>
                <mxCell id="647" value="10.0.0.42&lt;div&gt;00:00:00:00:00:2A&lt;/div&gt;" style="text;html=1;align=center;verticalAlign=middle;resizable=0;points=[];autosize=1;strokeColor=none;fillColor=none;" parent="1" vertex="1">
                    <mxGeometry x="4940" y="800" width="120" height="40" as="geometry"/>
                </mxCell>
                <mxCell id="648" value="10.0.0.41&lt;div&gt;00:00:00:00:00:29&lt;/div&gt;" style="text;html=1;align=center;verticalAlign=middle;resizable=0;points=[];autosize=1;strokeColor=none;fillColor=none;" parent="1" vertex="1">
                    <mxGeometry x="4820" y="800" width="120" height="40" as="geometry"/>
                </mxCell>
                <mxCell id="649" value="10.0.0.43&lt;div&gt;00:00:00:00:00:2B&lt;/div&gt;" style="text;html=1;align=center;verticalAlign=middle;resizable=0;points=[];autosize=1;strokeColor=none;fillColor=none;" parent="1" vertex="1">
                    <mxGeometry x="5060" y="800" width="120" height="40" as="geometry"/>
                </mxCell>
                <mxCell id="650" value="10.0.0.44&lt;div&gt;00:00:00:00:00:2C&lt;/div&gt;" style="text;html=1;align=center;verticalAlign=middle;resizable=0;points=[];autosize=1;strokeColor=none;fillColor=none;" parent="1" vertex="1">
                    <mxGeometry x="5180" y="800" width="120" height="40" as="geometry"/>
                </mxCell>
                <mxCell id="651" value="10.0.0.45&lt;div&gt;00:00:00:00:00:2D&lt;/div&gt;" style="text;html=1;align=center;verticalAlign=middle;resizable=0;points=[];autosize=1;strokeColor=none;fillColor=none;" parent="1" vertex="1">
                    <mxGeometry x="5300" y="800" width="120" height="40" as="geometry"/>
                </mxCell>
                <mxCell id="652" value="10.0.0.46&lt;div&gt;00:00:00:00:00:2E&lt;/div&gt;" style="text;html=1;align=center;verticalAlign=middle;resizable=0;points=[];autosize=1;strokeColor=none;fillColor=none;" parent="1" vertex="1">
                    <mxGeometry x="5420" y="800" width="120" height="40" as="geometry"/>
                </mxCell>
                <mxCell id="653" value="10.0.0.50&lt;div&gt;00:00:00:00:00:32&lt;/div&gt;" style="text;html=1;align=center;verticalAlign=middle;resizable=0;points=[];autosize=1;strokeColor=none;fillColor=none;" parent="1" vertex="1">
                    <mxGeometry x="5900" y="800" width="120" height="40" as="geometry"/>
                </mxCell>
                <mxCell id="654" value="10.0.0.47&lt;div&gt;00:00:00:00:00:2F&lt;/div&gt;" style="text;html=1;align=center;verticalAlign=middle;resizable=0;points=[];autosize=1;strokeColor=none;fillColor=none;" parent="1" vertex="1">
                    <mxGeometry x="5540" y="800" width="120" height="40" as="geometry"/>
                </mxCell>
                <mxCell id="655" value="10.0.0.48&lt;div&gt;00:00:00:00:00:30&lt;/div&gt;" style="text;html=1;align=center;verticalAlign=middle;resizable=0;points=[];autosize=1;strokeColor=none;fillColor=none;" parent="1" vertex="1">
                    <mxGeometry x="5660" y="800" width="120" height="40" as="geometry"/>
                </mxCell>
                <mxCell id="656" value="10.0.0.49&lt;div&gt;00:00:00:00:00:31&lt;/div&gt;" style="text;html=1;align=center;verticalAlign=middle;resizable=0;points=[];autosize=1;strokeColor=none;fillColor=none;" parent="1" vertex="1">
                    <mxGeometry x="5780" y="800" width="120" height="40" as="geometry"/>
                </mxCell>
                <mxCell id="657" value="10.0.0.51&lt;div&gt;00:00:00:00:00:33&lt;/div&gt;" style="text;html=1;align=center;verticalAlign=middle;resizable=0;points=[];autosize=1;strokeColor=none;fillColor=none;" parent="1" vertex="1">
                    <mxGeometry x="6020" y="800" width="120" height="40" as="geometry"/>
                </mxCell>
                <mxCell id="658" value="10.0.0.52&lt;div&gt;00:00:00:00:00:34&lt;/div&gt;" style="text;html=1;align=center;verticalAlign=middle;resizable=0;points=[];autosize=1;strokeColor=none;fillColor=none;" parent="1" vertex="1">
                    <mxGeometry x="6140" y="800" width="120" height="40" as="geometry"/>
                </mxCell>
                <mxCell id="659" value="10.0.0.53&lt;div&gt;00:00:00:00:00:35&lt;/div&gt;" style="text;html=1;align=center;verticalAlign=middle;resizable=0;points=[];autosize=1;strokeColor=none;fillColor=none;" parent="1" vertex="1">
                    <mxGeometry x="6260" y="800" width="120" height="40" as="geometry"/>
                </mxCell>
                <mxCell id="660" value="10.0.0.54&lt;div&gt;00:00:00:00:00:36&lt;/div&gt;" style="text;html=1;align=center;verticalAlign=middle;resizable=0;points=[];autosize=1;strokeColor=none;fillColor=none;" parent="1" vertex="1">
                    <mxGeometry x="6380" y="800" width="120" height="40" as="geometry"/>
                </mxCell>
                <mxCell id="661" value="10.0.0.55&lt;div&gt;00:00:00:00:00:37&lt;/div&gt;" style="text;html=1;align=center;verticalAlign=middle;resizable=0;points=[];autosize=1;strokeColor=none;fillColor=none;" parent="1" vertex="1">
                    <mxGeometry x="6500" y="800" width="120" height="40" as="geometry"/>
                </mxCell>
                <mxCell id="662" value="10.0.0.56&lt;div&gt;00:00:00:00:00:38&lt;/div&gt;" style="text;html=1;align=center;verticalAlign=middle;resizable=0;points=[];autosize=1;strokeColor=none;fillColor=none;" parent="1" vertex="1">
                    <mxGeometry x="6620" y="800" width="120" height="40" as="geometry"/>
                </mxCell>
                <mxCell id="663" value="10.0.0.57&lt;div&gt;00:00:00:00:00:39&lt;/div&gt;" style="text;html=1;align=center;verticalAlign=middle;resizable=0;points=[];autosize=1;strokeColor=none;fillColor=none;" parent="1" vertex="1">
                    <mxGeometry x="6740" y="800" width="120" height="40" as="geometry"/>
                </mxCell>
                <mxCell id="664" value="10.0.0.58&lt;div&gt;00:00:00:00:00:3A&lt;/div&gt;" style="text;html=1;align=center;verticalAlign=middle;resizable=0;points=[];autosize=1;strokeColor=none;fillColor=none;" parent="1" vertex="1">
                    <mxGeometry x="6860" y="800" width="120" height="40" as="geometry"/>
                </mxCell>
                <mxCell id="665" value="10.0.0.59&lt;div&gt;00:00:00:00:00:3B&lt;/div&gt;" style="text;html=1;align=center;verticalAlign=middle;resizable=0;points=[];autosize=1;strokeColor=none;fillColor=none;" parent="1" vertex="1">
                    <mxGeometry x="6980" y="800" width="120" height="40" as="geometry"/>
                </mxCell>
                <mxCell id="666" value="10.0.0.60&lt;div&gt;00:00:00:00:00:3C&lt;/div&gt;" style="text;html=1;align=center;verticalAlign=middle;resizable=0;points=[];autosize=1;strokeColor=none;fillColor=none;" parent="1" vertex="1">
                    <mxGeometry x="7100" y="800" width="120" height="40" as="geometry"/>
                </mxCell>
                <mxCell id="667" value="10.0.0.61&lt;div&gt;00:00:00:00:00:3D&lt;/div&gt;" style="text;html=1;align=center;verticalAlign=middle;resizable=0;points=[];autosize=1;strokeColor=none;fillColor=none;" parent="1" vertex="1">
                    <mxGeometry x="7220" y="800" width="120" height="40" as="geometry"/>
                </mxCell>
                <mxCell id="668" value="10.0.0.62&lt;div&gt;00:00:00:00:00:3E&lt;/div&gt;" style="text;html=1;align=center;verticalAlign=middle;resizable=0;points=[];autosize=1;strokeColor=none;fillColor=none;" parent="1" vertex="1">
                    <mxGeometry x="7340" y="800" width="120" height="40" as="geometry"/>
                </mxCell>
                <mxCell id="669" value="10.0.0.63&lt;div&gt;00:00:00:00:00:3F&lt;/div&gt;" style="text;html=1;align=center;verticalAlign=middle;resizable=0;points=[];autosize=1;strokeColor=none;fillColor=none;" parent="1" vertex="1">
                    <mxGeometry x="7460" y="800" width="120" height="40" as="geometry"/>
                </mxCell>
                <mxCell id="670" value="10.0.0.64&lt;div&gt;00:00:00:00:00:40&lt;/div&gt;" style="text;html=1;align=center;verticalAlign=middle;resizable=0;points=[];autosize=1;strokeColor=none;fillColor=none;" parent="1" vertex="1">
                    <mxGeometry x="7580" y="800" width="120" height="40" as="geometry"/>
                </mxCell>
                <mxCell id="671" value="10.0.0.65&lt;div&gt;00:00:00:00:00:41&lt;/div&gt;" style="text;html=1;align=center;verticalAlign=middle;resizable=0;points=[];autosize=1;strokeColor=none;fillColor=none;fontStyle=0" parent="1" vertex="1">
                    <mxGeometry x="7700" y="800" width="120" height="40" as="geometry"/>
                </mxCell>
                <mxCell id="672" value="10.0.0.66&lt;div&gt;00:00:00:00:00:42&lt;/div&gt;" style="text;html=1;align=center;verticalAlign=middle;resizable=0;points=[];autosize=1;strokeColor=none;fillColor=none;" parent="1" vertex="1">
                    <mxGeometry x="7820" y="800" width="120" height="40" as="geometry"/>
                </mxCell>
                <mxCell id="673" value="10.0.0.67&lt;div&gt;00:00:00:00:00:43&lt;/div&gt;" style="text;html=1;align=center;verticalAlign=middle;resizable=0;points=[];autosize=1;strokeColor=none;fillColor=none;" parent="1" vertex="1">
                    <mxGeometry x="7940" y="800" width="120" height="40" as="geometry"/>
                </mxCell>
                <mxCell id="674" value="10.0.0.68&lt;div&gt;00:00:00:00:00:44&lt;/div&gt;" style="text;html=1;align=center;verticalAlign=middle;resizable=0;points=[];autosize=1;strokeColor=none;fillColor=none;" parent="1" vertex="1">
                    <mxGeometry x="8060" y="800" width="120" height="40" as="geometry"/>
                </mxCell>
                <mxCell id="675" value="10.0.0.69&lt;div&gt;00:00:00:00:00:45&lt;/div&gt;" style="text;html=1;align=center;verticalAlign=middle;resizable=0;points=[];autosize=1;strokeColor=none;fillColor=none;" parent="1" vertex="1">
                    <mxGeometry x="8180" y="800" width="120" height="40" as="geometry"/>
                </mxCell>
                <mxCell id="676" value="10.0.0.70&lt;div&gt;00:00:00:00:00:46&lt;/div&gt;" style="text;html=1;align=center;verticalAlign=middle;resizable=0;points=[];autosize=1;strokeColor=none;fillColor=none;" parent="1" vertex="1">
                    <mxGeometry x="8300" y="800" width="120" height="40" as="geometry"/>
                </mxCell>
                <mxCell id="677" value="10.0.0.72&lt;div&gt;00:00:00:00:00:48&lt;/div&gt;" style="text;html=1;align=center;verticalAlign=middle;resizable=0;points=[];autosize=1;strokeColor=none;fillColor=none;" parent="1" vertex="1">
                    <mxGeometry x="8540" y="800" width="120" height="40" as="geometry"/>
                </mxCell>
                <mxCell id="678" value="10.0.0.71&lt;div&gt;00:00:00:00:00:47&lt;/div&gt;" style="text;html=1;align=center;verticalAlign=middle;resizable=0;points=[];autosize=1;strokeColor=none;fillColor=none;" parent="1" vertex="1">
                    <mxGeometry x="8420" y="800" width="120" height="40" as="geometry"/>
                </mxCell>
                <mxCell id="679" value="10.0.0.75&lt;div&gt;00:00:00:00:00:4B&lt;/div&gt;" style="text;html=1;align=center;verticalAlign=middle;resizable=0;points=[];autosize=1;strokeColor=none;fillColor=none;" parent="1" vertex="1">
                    <mxGeometry x="8900" y="800" width="120" height="40" as="geometry"/>
                </mxCell>
                <mxCell id="680" value="10.0.0.73&lt;div&gt;00:00:00:00:00:49&lt;/div&gt;" style="text;html=1;align=center;verticalAlign=middle;resizable=0;points=[];autosize=1;strokeColor=none;fillColor=none;" parent="1" vertex="1">
                    <mxGeometry x="8660" y="800" width="120" height="40" as="geometry"/>
                </mxCell>
                <mxCell id="681" value="10.0.0.74&lt;div&gt;00:00:00:00:00:4A&lt;/div&gt;" style="text;html=1;align=center;verticalAlign=middle;resizable=0;points=[];autosize=1;strokeColor=none;fillColor=none;" parent="1" vertex="1">
                    <mxGeometry x="8780" y="800" width="120" height="40" as="geometry"/>
                </mxCell>
                <mxCell id="682" value="10.0.0.76&lt;div&gt;00:00:00:00:00:4C&lt;/div&gt;" style="text;html=1;align=center;verticalAlign=middle;resizable=0;points=[];autosize=1;strokeColor=none;fillColor=none;" parent="1" vertex="1">
                    <mxGeometry x="9020" y="800" width="120" height="40" as="geometry"/>
                </mxCell>
                <mxCell id="683" value="10.0.0.77&lt;div&gt;00:00:00:00:00:4D&lt;/div&gt;" style="text;html=1;align=center;verticalAlign=middle;resizable=0;points=[];autosize=1;strokeColor=none;fillColor=none;" parent="1" vertex="1">
                    <mxGeometry x="9140" y="800" width="120" height="40" as="geometry"/>
                </mxCell>
                <mxCell id="684" value="10.0.0.78&lt;div&gt;00:00:00:00:00:4E&lt;/div&gt;" style="text;html=1;align=center;verticalAlign=middle;resizable=0;points=[];autosize=1;strokeColor=none;fillColor=none;" parent="1" vertex="1">
                    <mxGeometry x="9260" y="800" width="120" height="40" as="geometry"/>
                </mxCell>
                <mxCell id="685" value="10.0.0.79&lt;div&gt;00:00:00:00:00:4F&lt;/div&gt;" style="text;html=1;align=center;verticalAlign=middle;resizable=0;points=[];autosize=1;strokeColor=none;fillColor=none;" parent="1" vertex="1">
                    <mxGeometry x="9380" y="800" width="120" height="40" as="geometry"/>
                </mxCell>
                <mxCell id="686" value="10.0.0.80&lt;div&gt;00:00:00:00:00:50&lt;/div&gt;" style="text;html=1;align=center;verticalAlign=middle;resizable=0;points=[];autosize=1;strokeColor=none;fillColor=none;" parent="1" vertex="1">
                    <mxGeometry x="9500" y="800" width="120" height="40" as="geometry"/>
                </mxCell>
                <mxCell id="687" value="10.0.0.81&lt;div&gt;00:00:00:00:00:51&lt;/div&gt;" style="text;html=1;align=center;verticalAlign=middle;resizable=0;points=[];autosize=1;strokeColor=none;fillColor=none;" parent="1" vertex="1">
                    <mxGeometry x="9620" y="800" width="120" height="40" as="geometry"/>
                </mxCell>
            </root>
        </mxGraphModel>
    </diagram>
</mxfile>